<svg width="802" height="630" viewBox="0 0 802 630" fill="none" xmlns="http://www.w3.org/2000/svg">
<path d="M890.5 986.244C883.073 979.708 872.528 963.368 863.543 935.664C854.557 907.96 816.238 894.814 805.619 873.572C794.999 852.329 786.83 787.043 786.013 716.855C785.197 646.666 771.161 565.857 759.056 530.725C746.952 495.594 734.624 457.269 738.709 413.151C742.793 369.032 741.085 324.988 735.441 302.186C729.797 279.384 727.272 280.944 736.258 234.449C745.244 187.954 727.272 136.408 699.127 87.4618C670.982 38.5156 611.796 37.6986 596.275 26.2605C580.754 14.8224 550.604 8.28635 522.013 -8.0538C493.422 -24.394 474.709 -29.296 474.709 -40.7341C474.709 -52.1722 473.817 -82.3272 485.328 -106.837C492.312 -122.245 496.198 -138.876 496.764 -155.784C508.943 -149.248 509.76 -160.686 520.454 -182.745C531.147 -204.804 534.266 -219.882 531.816 -230.948C531.357 -233.965 529.727 -236.678 527.28 -238.5C524.833 -240.321 521.766 -241.104 518.746 -240.678C518.746 -240.678 537.534 -311.758 500.774 -357.436C471.07 -393.978 427.107 -400.737 410.398 -402H407.056H403.714C386.931 -400.663 342.597 -393.904 313.189 -357.436C276.504 -311.758 295.292 -240.678 295.292 -240.678C292.272 -241.104 289.205 -240.321 286.758 -238.5C284.311 -236.678 282.681 -233.965 282.222 -230.948C280.143 -219.51 283.41 -204.656 294.03 -182.374C304.649 -160.091 305.466 -148.876 317.645 -155.412C318.216 -138.497 322.128 -121.862 329.156 -106.466C340.518 -81.9558 339.701 -51.7266 339.701 -40.3628C339.701 -28.9989 320.987 -24.0226 292.396 -7.68244C263.805 8.65771 233.581 15.1938 218.134 26.6319C202.688 38.07 143.056 38.887 115.282 87.8331C87.5082 136.779 69.5369 187.879 78.671 234.449C87.8052 281.018 85.2061 279.013 79.4879 302.186C73.7698 325.36 72.0617 369.032 76.2204 413.151C80.3791 457.269 68.0516 495.594 55.8727 530.725C43.6938 565.857 29.7326 646.666 28.9157 716.855C28.0988 787.043 19.93 852.404 9.31063 873.572C-1.30879 894.74 -39.6278 907.886 -48.6135 935.664C-57.5991 963.442 -68.2185 979.708 -75.5705 986.244C-82.9224 992.78 -60.0498 1005.04 -49.4303 986.244C-38.8109 967.453 -31.459 957.649 -24.9983 960.917C-18.5375 964.185 -27.5232 998.574 -35.6919 1034.45C-43.8607 1070.32 -52.0295 1093.87 -37.4 1093.87C-22.7704 1093.87 -12.8936 1039.13 -8.80922 1027.76C-4.72482 1016.4 -5.5417 1055.54 -16.2354 1083.25C-26.9291 1110.95 -24.4042 1120.38 -16.2354 1121.57C-8.0666 1122.76 0.102184 1098.77 0.102184 1098.77C0.102184 1098.77 15.9942 1111.25 32.9258 1067.87C32.9258 1067.87 49.7832 1079.9 65.4525 1030.73C81.1217 981.565 93.2263 916.13 87.1369 885.975C81.0474 855.82 155.903 724.356 164.369 612.203C172.835 500.051 188.504 413.151 194.519 407.135C200.534 401.118 235.512 513.271 221.031 572.393C212.565 604.821 206.925 637.923 204.173 671.325C202.985 682.169 183.603 726.807 177.588 776.274C171.572 825.74 149.888 878.771 169.196 1050.05C188.504 1221.32 219.842 1277.99 223.407 1312.97C226.972 1347.96 227.046 1439.61 225.858 1457.73C224.669 1475.85 218.432 1501.11 217.392 1520.49C216.352 1539.88 187.316 1607.17 219.768 1741.31C252.221 1875.45 259.572 1952.39 259.572 1966.88C259.572 1981.36 252.146 1983.74 259.572 2003.12C266.999 2022.51 240.264 2063.21 220.585 2079.7C200.906 2096.19 193.331 2109.41 190.88 2117.58C188.43 2125.75 189.247 2135.18 196.153 2135.18C195.258 2137.55 194.986 2140.12 195.363 2142.63C195.74 2145.14 196.753 2147.51 198.307 2149.51C199.395 2151.56 201.162 2153.16 203.304 2154.04C205.446 2154.92 207.828 2155.03 210.04 2154.34C210.021 2156.71 210.802 2159.02 212.258 2160.9C213.713 2162.77 215.757 2164.1 218.06 2164.67C220.03 2165.42 222.133 2165.76 224.241 2165.67C226.348 2165.59 228.415 2165.07 230.313 2164.15C231.664 2166.82 233.719 2169.08 236.257 2170.68C238.796 2172.28 241.722 2173.15 244.72 2173.21C254.3 2172.61 256.453 2165.19 257.493 2159.84C258.533 2154.49 261.8 2143.28 267.073 2142.76C268.217 2142.59 269.384 2142.74 270.445 2143.2C271.506 2143.66 272.419 2144.41 273.081 2145.36C273.744 2146.3 274.13 2147.42 274.196 2148.57C274.263 2149.72 274.008 2150.87 273.459 2151.89C271.38 2156.64 270.266 2159.84 267.073 2167.34C263.88 2174.84 271.38 2184.87 291.654 2181.23C311.927 2177.59 303.313 2158.28 315.566 2144.98C321.477 2139.53 326.082 2132.8 329.039 2125.32C331.996 2117.84 333.229 2109.78 332.646 2101.76C332.126 2082.52 353.439 2086.31 350.246 2052.66C347.053 2019.02 340.146 2009.51 346.533 1991.39C352.919 1973.26 342.226 1951.87 341.186 1943.41C340.483 1906.02 341.872 1868.63 345.345 1831.4C348.909 1808.53 362.202 1730.09 360.197 1698.75C358.192 1667.41 375.866 1643.27 357.746 1565.06C339.627 1486.85 368.292 1496.21 367.029 1415.4C365.767 1334.59 387.525 1308 382.698 1233.2C377.871 1158.41 392.352 1117.41 394.729 1076.41C396.437 1047.67 401.709 1037.27 404.754 1033.71C408.838 1037.05 414.854 1046.41 416.413 1072.77C418.864 1113.85 429.632 1158.48 424.879 1233.2C420.126 1307.92 434.459 1334.59 433.271 1415.4C432.082 1496.21 461.044 1486.55 442.925 1564.91C424.805 1643.27 435.498 1667.48 433.271 1698.6C431.043 1729.72 451.39 1808.38 454.955 1831.25C458.466 1868.48 459.855 1905.87 459.114 1943.26C458.074 1951.72 447.38 1972.97 453.767 1991.24C460.153 2009.51 453.247 2018.94 450.054 2052.51C446.86 2086.09 468.173 2082.22 467.654 2101.61C467.087 2109.63 468.327 2117.68 471.283 2125.16C474.239 2132.64 478.835 2139.37 484.734 2144.84C496.987 2158.13 488.447 2177.29 508.72 2181.08C528.994 2184.87 536.42 2174.62 533.227 2167.19C530.033 2159.76 528.92 2156.5 526.84 2151.74C526.292 2150.73 526.036 2149.58 526.103 2148.42C526.17 2147.27 526.556 2146.15 527.218 2145.21C527.881 2144.26 528.793 2143.51 529.854 2143.06C530.915 2142.6 532.083 2142.44 533.227 2142.61C538.574 2143.13 541.767 2154.34 542.806 2159.69C543.846 2165.04 546 2172.47 555.579 2173.06C558.578 2173 561.504 2172.13 564.042 2170.53C566.581 2168.93 568.636 2166.68 569.986 2164C571.886 2164.91 573.953 2165.43 576.059 2165.52C578.166 2165.61 580.269 2165.27 582.239 2164.52C584.606 2163.94 586.698 2162.55 588.16 2160.6C589.623 2158.65 590.364 2156.26 590.26 2153.82C592.472 2154.51 594.854 2154.4 596.995 2153.52C599.137 2152.64 600.905 2151.04 601.993 2148.99C603.546 2146.99 604.56 2144.62 604.937 2142.11C605.314 2139.6 605.042 2137.03 604.147 2134.66C611.053 2134.66 612.167 2125.6 609.419 2117.06C606.672 2108.52 599.32 2095.74 579.715 2079.18C560.109 2062.61 533.449 2021.84 540.653 2002.6C547.856 1983.36 540.653 1980.84 540.653 1966.36C540.653 1951.87 548.079 1874.7 580.457 1740.79C612.835 1606.87 591.299 1539.36 590.111 1520.12C588.923 1500.88 582.685 1475.56 581.72 1457.36C580.754 1439.16 587.661 1347.66 591.077 1312.82C594.493 1277.99 626.054 1221.17 645.436 1049.9C664.818 878.622 628.504 825.591 622.489 776.125C616.474 726.659 611.647 682.021 610.385 671.177C607.633 637.774 601.993 604.673 593.527 572.244C579.046 512.826 614.023 400.97 620.039 406.986C626.054 413.002 641.946 499.902 650.486 612.352C659.026 724.802 733.733 856.043 727.718 886.124C721.703 916.205 733.733 981.417 749.402 1030.88C765.072 1080.35 781.929 1068.02 781.929 1068.02C798.861 1111.4 814.753 1098.92 814.753 1098.92C814.753 1098.92 822.921 1123.43 831.09 1121.72C839.259 1120.01 841.71 1111.17 831.09 1083.39C820.471 1055.62 819.654 1016.55 823.664 1027.91C827.674 1039.28 837.551 1094.02 852.181 1094.02C866.81 1094.02 858.716 1070.32 850.547 1034.6C842.378 998.871 833.392 964.334 840.002 961.066C846.611 957.798 853.889 967.676 864.434 986.393C874.979 1005.11 897.926 992.929 890.574 986.393L890.5 986.244Z" fill="#F1F3F3"/>
</svg>
