<svg width="802" height="630" viewBox="0 0 802 630" fill="none" xmlns="http://www.w3.org/2000/svg">
<path d="M890.5 986.244C883.073 979.708 872.528 963.368 863.543 935.664C854.557 907.96 816.238 894.814 805.619 873.572C794.999 852.329 786.83 787.043 786.013 716.855C785.197 646.666 771.161 565.857 759.056 530.725C746.952 495.594 734.624 457.269 738.709 413.151C742.793 369.032 741.085 324.988 735.441 302.186C729.797 279.384 727.272 280.944 736.258 234.449C745.244 187.954 727.272 136.408 699.127 87.4618C670.982 38.5156 611.796 37.6986 596.275 26.2605C580.754 14.8224 550.604 8.28635 522.013 -8.0538C493.422 -24.394 474.709 -29.296 474.709 -40.7341C474.709 -52.1722 473.817 -82.3272 485.328 -106.837C492.312 -122.245 496.198 -138.876 496.764 -155.784C508.943 -149.248 509.76 -160.686 520.454 -182.745C531.147 -204.804 534.266 -219.882 531.816 -230.948C531.357 -233.965 529.727 -236.678 527.28 -238.5C524.833 -240.321 521.766 -241.104 518.746 -240.678C518.746 -240.678 537.534 -311.758 500.774 -357.436C471.07 -393.978 427.107 -400.737 410.398 -402H407.056H403.714C386.931 -400.663 342.597 -393.904 313.189 -357.436C276.504 -311.758 295.292 -240.678 295.292 -240.678C292.272 -241.104 289.205 -240.321 286.758 -238.5C284.311 -236.678 282.681 -233.965 282.222 -230.948C280.143 -219.51 283.41 -204.656 294.03 -182.374C304.649 -160.091 305.466 -148.876 317.645 -155.412C318.216 -138.497 322.128 -121.862 329.156 -106.466C340.518 -81.9558 339.701 -51.7266 339.701 -40.3628C339.701 -28.9989 320.987 -24.0226 292.396 -7.68244C263.805 8.65771 233.581 15.1938 218.134 26.6319C202.688 38.07 143.056 38.887 115.282 87.8331C87.5082 136.779 69.5369 187.879 78.671 234.449C87.8052 281.018 85.2061 279.013 79.4879 302.186C73.7698 325.36 72.0617 369.032 76.2204 413.151C80.3791 457.269 68.0516 495.594 55.8727 530.725C43.6938 565.857 29.7326 646.666 28.9157 716.855C28.0988 787.043 19.93 852.404 9.31063 873.572C-1.30879 894.74 -39.6278 907.886 -48.6135 935.664C-57.5991 963.442 -68.2185 979.708 -75.5705 986.244C-82.9224 992.78 -60.0498 1005.04 -49.4303 986.244C-38.8109 967.453 -31.459 957.649 -24.9983 960.917C-18.5375 964.185 -27.5232 998.574 -35.6919 1034.45C-43.8607 1070.32 -52.0295 1093.87 -37.4 1093.87C-22.7704 1093.87 -12.8936 1039.13 -8.80922 1027.76C-4.72482 1016.4 -5.5417 1055.54 -16.2354 1083.25C-26.9291 1110.95 -24.4042 1120.38 -16.2354 1121.57C-8.0666 1122.76 0.102184 1098.77 0.102184 1098.77C0.102184 1098.77 15.9942 1111.25 32.9258 1067.87C32.9258 1067.87 49.7832 1079.9 65.4525 1030.73C81.1217 981.565 93.2263 916.13 87.1369 885.975C81.0474 855.82 155.903 724.356 164.369 612.203C172.835 500.051 188.504 413.151 194.519 407.135C200.534 401.118 235.512 513.271 221.031 572.393C212.565 604.821 206.925 637.923 204.173 671.325C202.985 682.169 183.603 726.807 177.588 776.274C171.572 825.74 149.888 878.771 169.196 1050.05C188.504 1221.32 219.842 1277.99 223.407 1312.97C226.972 1347.96 227.046 1439.61 225.858 1457.73C224.669 1475.85 218.432 1501.11 217.392 1520.49C216.352 1539.88 187.316 1607.17 219.768 1741.31C252.221 1875.45 259.572 1952.39 259.572 1966.88C259.572 1981.36 252.146 1983.74 259.572 2003.12C266.999 2022.51 240.264 2063.21 220.585 2079.7C200.906 2096.19 193.331 2109.41 190.88 2117.58C188.43 2125.75 189.247 2135.18 196.153 2135.18C195.258 2137.55 194.986 2140.12 195.363 2142.63C195.74 2145.14 196.753 2147.51 198.307 2149.51C199.395 2151.56 201.162 2153.16 203.304 2154.04C205.446 2154.92 207.828 2155.03 210.04 2154.34C210.021 2156.71 210.802 2159.02 212.258 2160.9C213.713 2162.77 215.757 2164.1 218.06 2164.67C220.03 2165.42 222.133 2165.76 224.241 2165.67C226.348 2165.59 228.415 2165.07 230.313 2164.15C231.664 2166.82 233.719 2169.08 236.257 2170.68C238.796 2172.28 241.722 2173.15 244.72 2173.21C254.3 2172.61 256.453 2165.19 257.493 2159.84C258.533 2154.49 261.8 2143.28 267.073 2142.76C268.217 2142.59 269.384 2142.74 270.445 2143.2C271.506 2143.66 272.419 2144.41 273.081 2145.36C273.744 2146.3 274.13 2147.42 274.196 2148.57C274.263 2149.72 274.008 2150.87 273.459 2151.89C271.38 2156.64 270.266 2159.84 267.073 2167.34C263.88 2174.84 271.38 2184.87 291.654 2181.23C311.927 2177.59 303.313 2158.28 315.566 2144.98C321.477 2139.53 326.082 2132.8 329.039 2125.32C331.996 2117.84 333.229 2109.78 332.646 2101.76C332.126 2082.52 353.439 2086.31 350.246 2052.66C347.053 2019.02 340.146 2009.51 346.533 1991.39C352.919 1973.26 342.226 1951.87 341.186 1943.41C340.483 1906.02 341.872 1868.63 345.345 1831.4C348.909 1808.53 362.202 1730.09 360.197 1698.75C358.192 1667.41 375.866 1643.27 357.746 1565.06C339.627 1486.85 368.292 1496.21 367.029 1415.4C365.767 1334.59 387.525 1308 382.698 1233.2C377.871 1158.41 392.352 1117.41 394.729 1076.41C396.437 1047.67 401.709 1037.27 404.754 1033.71C408.838 1037.05 414.854 1046.41 416.413 1072.77C418.864 1113.85 429.632 1158.48 424.879 1233.2C420.126 1307.92 434.459 1334.59 433.271 1415.4C432.082 1496.21 461.044 1486.55 442.925 1564.91C424.805 1643.27 435.498 1667.48 433.271 1698.6C431.043 1729.72 451.39 1808.38 454.955 1831.25C458.466 1868.48 459.855 1905.87 459.114 1943.26C458.074 1951.72 447.38 1972.97 453.767 1991.24C460.153 2009.51 453.247 2018.94 450.054 2052.51C446.86 2086.09 468.173 2082.22 467.654 2101.61C467.087 2109.63 468.327 2117.68 471.283 2125.16C474.239 2132.64 478.835 2139.37 484.734 2144.84C496.987 2158.13 488.447 2177.29 508.72 2181.08C528.994 2184.87 536.42 2174.62 533.227 2167.19C530.033 2159.76 528.92 2156.5 526.84 2151.74C526.292 2150.73 526.036 2149.58 526.103 2148.42C526.17 2147.27 526.556 2146.15 527.218 2145.21C527.881 2144.26 528.793 2143.51 529.854 2143.06C530.915 2142.6 532.083 2142.44 533.227 2142.61C538.574 2143.13 541.767 2154.34 542.806 2159.69C543.846 2165.04 546 2172.47 555.579 2173.06C558.578 2173 561.504 2172.13 564.042 2170.53C566.581 2168.93 568.636 2166.68 569.986 2164C571.886 2164.91 573.953 2165.43 576.059 2165.52C578.166 2165.61 580.269 2165.27 582.239 2164.52C584.606 2163.94 586.698 2162.55 588.16 2160.6C589.623 2158.65 590.364 2156.26 590.26 2153.82C592.472 2154.51 594.854 2154.4 596.995 2153.52C599.137 2152.64 600.905 2151.04 601.993 2148.99C603.546 2146.99 604.56 2144.62 604.937 2142.11C605.314 2139.6 605.042 2137.03 604.147 2134.66C611.053 2134.66 612.167 2125.6 609.419 2117.06C606.672 2108.52 599.32 2095.74 579.715 2079.18C560.109 2062.61 533.449 2021.84 540.653 2002.6C547.856 1983.36 540.653 1980.84 540.653 1966.36C540.653 1951.87 548.079 1874.7 580.457 1740.79C612.835 1606.87 591.299 1539.36 590.111 1520.12C588.923 1500.88 582.685 1475.56 581.72 1457.36C580.754 1439.16 587.661 1347.66 591.077 1312.82C594.493 1277.99 626.054 1221.17 645.436 1049.9C664.818 878.622 628.504 825.591 622.489 776.125C616.474 726.659 611.647 682.021 610.385 671.177C607.633 637.774 601.993 604.673 593.527 572.244C579.046 512.826 614.023 400.97 620.039 406.986C626.054 413.002 641.946 499.902 650.486 612.352C659.026 724.802 733.733 856.043 727.718 886.124C721.703 916.205 733.733 981.417 749.402 1030.88C765.072 1080.35 781.929 1068.02 781.929 1068.02C798.861 1111.4 814.753 1098.92 814.753 1098.92C814.753 1098.92 822.921 1123.43 831.09 1121.72C839.259 1120.01 841.71 1111.17 831.09 1083.39C820.471 1055.62 819.654 1016.55 823.664 1027.91C827.674 1039.28 837.551 1094.02 852.181 1094.02C866.81 1094.02 858.716 1070.32 850.547 1034.6C842.378 998.871 833.392 964.334 840.002 961.066C846.611 957.798 853.889 967.676 864.434 986.393C874.979 1005.11 897.926 992.929 890.574 986.393L890.5 986.244Z" fill="#F1F3F3"/>
<g style="mix-blend-mode:screen">
<path d="M430 280.5C426.536 294.489 426.181 309.067 428.96 323.207C427.91 311.127 429.144 298.957 432.599 287.333L430 280.5Z" fill="#DA3F48"/>
</g>
<path d="M451.612 115.762C449.312 121.78 448.202 128.187 448.344 134.627C448.992 150.264 451.106 165.806 454.657 181.048C459.011 196.401 459.139 212.644 455.028 228.063C452.175 236.045 448.145 243.556 443.072 250.345C445.065 245.764 446.656 241.017 447.825 236.159C449.331 228.453 450.052 220.615 449.978 212.763C449.782 196.415 448.016 180.124 444.706 164.114C441.587 146.437 438.913 114.722 459.112 105.438C456.035 108.421 453.498 111.914 451.612 115.762Z" fill="#DA3F48"/>
<path d="M582.608 397.407C575.182 382.553 556.616 360.271 496.91 341.777C437.203 323.282 423.465 337.692 423.094 347.867C423.365 360.684 425.389 373.404 429.109 385.672C435.273 405.28 445.224 412.039 469.582 418.872C497.1 426.033 525.538 429.012 553.943 427.711C563.979 425.511 573.489 421.374 581.939 415.53C583.677 412.851 584.657 409.752 584.774 406.561C584.892 403.37 584.143 400.207 582.608 397.407Z" fill="#9E383B"/>
<path d="M541.24 428.9C517.011 428.466 492.913 425.226 469.429 419.244C443.661 411.817 434.452 404.389 428.586 385.747C424.843 373.405 422.795 360.612 422.496 347.719C422.496 344.08 425.021 332.27 449.602 332.27C465.782 332.96 481.783 335.935 497.129 341.109C543.32 355.295 572.282 374.086 583.124 397.036C584.691 399.926 585.443 403.187 585.299 406.471C585.155 409.755 584.121 412.938 582.307 415.679C573.777 421.559 564.197 425.744 554.088 428.008C549.823 428.524 545.535 428.821 541.24 428.9ZM449.973 333.533C444.032 333.533 424.501 334.572 423.981 347.867C424.321 360.635 426.369 373.3 430.071 385.524C435.789 403.87 444.923 411.223 470.098 418.353C493.496 424.223 517.491 427.388 541.612 427.786C545.805 427.822 549.996 427.599 554.162 427.117C564.052 424.94 573.431 420.88 581.787 415.159C583.458 412.565 584.401 409.57 584.519 406.486C584.636 403.403 583.924 400.345 582.456 397.631C571.762 375.349 543.097 356.409 497.129 342.371C481.909 337.203 466.031 334.227 449.973 333.533Z" fill="#5B090E"/>
<g style="mix-blend-mode:multiply" opacity="0.5">
<path d="M582.608 397.407C575.182 382.553 556.616 360.271 496.91 341.777C437.203 323.282 423.465 337.692 423.094 347.867C423.365 360.684 425.389 373.404 429.109 385.672C429.927 388.203 430.894 390.683 432.005 393.1C431.478 390.659 431.204 388.17 431.188 385.672C431.188 378.245 433.416 368.589 441.362 365.99C444.778 364.801 448.788 366.51 452.13 366.51C460.15 366.51 539.536 387.752 558.621 411.074C562.928 416.347 563.374 421.398 557.136 425.186C555.799 426.003 554.314 426.82 552.829 427.562H553.869C563.904 425.363 573.414 421.225 581.865 415.382C583.586 412.726 584.563 409.658 584.694 406.496C584.824 403.334 584.104 400.196 582.608 397.407Z" fill="#9E383B"/>
</g>
<path d="M516.815 331.747C511.319 316.447 485.031 311.693 456.291 287.183C427.552 262.673 427.998 242.619 427.998 242.619C427.032 248.561 425.993 254.8 424.507 261.41C420.944 281.314 419.204 301.501 419.309 321.72C419.134 334.122 419.704 346.524 421.017 358.857C422.136 369.798 424.631 380.553 428.443 390.869C442.553 426.372 476.194 423.921 518.374 428.823C530.388 430.356 542.577 429.777 554.391 427.114C525.887 428.776 497.296 426.121 469.584 419.241C445.226 412.408 435.275 405.649 429.112 386.041C425.392 373.773 423.368 361.053 423.097 348.236C423.468 338.06 437.206 323.874 496.913 342.146C504.859 344.597 511.765 347.122 518.597 349.573C519.125 343.572 518.521 337.525 516.815 331.747Z" fill="#DA3F48"/>
<path d="M531.663 430.828C527.146 430.808 522.634 430.535 518.148 430.011C512.207 429.268 506.488 428.748 500.845 428.228C466.833 425.034 440.024 422.509 427.771 391.686C423.927 381.427 421.406 370.719 420.271 359.822C418.885 347.494 418.29 335.09 418.488 322.686C418.387 302.414 420.152 282.175 423.761 262.227C425.395 254.8 426.583 247.967 427.251 243.436C427.285 243.312 427.351 243.198 427.442 243.107C427.534 243.016 427.647 242.95 427.771 242.916H428.217C428.268 243.06 428.268 243.217 428.217 243.362C428.581 247.704 429.765 251.938 431.707 255.84C437.483 267.934 445.941 278.552 456.436 286.886C467.474 295.95 479.39 303.887 492.007 310.579C504.78 318.006 514.286 322.983 517.182 331.524C518.912 337.272 519.566 343.29 519.113 349.276C519.148 349.358 519.166 349.446 519.166 349.535C519.166 349.625 519.148 349.713 519.113 349.795H518.593C511.835 347.196 504.558 344.671 496.983 342.368C481.81 337.214 465.984 334.238 449.975 333.53C444.034 333.53 424.504 334.569 423.984 347.864C424.324 360.632 426.372 373.297 430.073 385.521C435.791 403.866 444.926 411.22 470.1 418.35C493.499 424.22 517.494 427.385 541.614 427.783C545.807 427.819 549.999 427.596 554.164 427.114C554.316 427.122 554.461 427.176 554.58 427.269C554.699 427.362 554.788 427.489 554.833 427.634C554.841 427.779 554.802 427.922 554.722 428.043C554.641 428.163 554.524 428.254 554.387 428.302C546.93 429.986 539.308 430.833 531.663 430.828ZM427.697 247.075C426.954 251.235 426.063 256.434 424.801 261.93C421.192 281.803 419.427 301.968 419.528 322.166C419.397 334.569 419.992 346.969 421.31 359.302C422.442 370.217 424.937 380.946 428.737 391.24C440.693 421.321 467.278 423.846 500.919 427.04C506.488 427.56 512.281 428.08 518.296 428.748C526.854 429.788 535.507 429.788 544.065 428.748C519.018 428.592 494.082 425.4 469.803 419.241C444.034 411.814 434.826 404.386 428.959 385.744C425.217 373.402 423.168 360.609 422.87 347.716C422.87 344.076 425.395 332.267 449.975 332.267C466.155 332.957 482.156 335.932 497.503 341.105C504.929 343.334 511.835 345.785 518.37 348.533C518.715 342.965 518.061 337.381 516.44 332.044C513.469 323.8 504.409 318.749 491.859 311.693C479.168 304.951 467.177 296.964 456.065 287.851C434.529 269.729 429.034 254.206 427.697 247.075Z" fill="#801B25"/>
<path d="M600.503 332.045C598.053 293.497 592.557 284.361 592.557 284.361C590.255 261.262 587.136 260.965 585.874 259.331C585.874 259.331 590.923 281.613 571.021 311.991C551.119 342.369 533.148 349.796 523.939 351.653C562.778 367.771 576.888 385.225 582.755 397.703C584.279 400.509 585.015 403.676 584.885 406.867C584.754 410.058 583.761 413.153 582.012 415.825C585.834 413.237 589.24 410.081 592.112 406.467C598.498 396.96 602.954 370.667 600.503 332.045Z" fill="#DA3F48"/>
<path d="M581.862 416.124H581.491C581.407 416.018 581.361 415.887 581.361 415.752C581.361 415.617 581.407 415.486 581.491 415.381C583.168 412.776 584.114 409.767 584.232 406.671C584.35 403.575 583.634 400.504 582.159 397.778C573.768 380.027 554.088 364.652 523.641 352.026C523.589 351.936 523.562 351.833 523.562 351.729C523.562 351.624 523.589 351.522 523.641 351.432C523.641 351.314 523.688 351.2 523.772 351.117C523.855 351.033 523.969 350.986 524.087 350.986C546.365 346.455 565.45 319.643 570.797 311.547C590.477 281.837 585.65 259.555 585.65 259.555C585.61 259.474 585.59 259.386 585.59 259.295C585.59 259.205 585.61 259.117 585.65 259.036C585.696 258.959 585.761 258.895 585.839 258.851C585.917 258.807 586.006 258.783 586.095 258.783C586.185 258.783 586.273 258.807 586.351 258.851C586.429 258.895 586.495 258.959 586.541 259.036L586.986 259.555C588.62 261.115 591.294 263.789 593.373 284.363C593.967 285.625 599.017 295.801 601.319 332.269C603.621 368.737 600.205 396.293 592.63 406.543C589.752 410.199 586.319 413.382 582.456 415.975L581.862 416.124ZM525.646 351.506C555.351 364.058 574.733 379.433 583.125 397.184C584.469 399.682 585.215 402.458 585.305 405.293C585.395 408.128 584.827 410.946 583.645 413.524C586.578 411.399 589.224 408.902 591.516 406.097C598.942 396.07 602.136 367.178 599.908 332.418C597.532 294.464 592.482 285.031 592.482 284.957C590.699 267.8 588.62 263.418 587.135 261.561C588.165 279.905 582.754 298.033 571.837 312.809C551.935 341.33 533.964 349.352 525.646 351.506Z" fill="#801B25"/>
<path d="M570.873 311.696C590.849 281.467 585.725 259.036 585.725 259.036C585.297 258.43 585.088 257.697 585.131 256.956C585.131 251.46 581.492 223.905 554.535 173.696C527.579 123.487 490.893 106.33 490.893 106.33C475.001 98.9025 451.089 96.5257 441.955 121.63C432.821 146.735 438.242 195.087 433.934 208.604C431.063 219.884 428.978 231.35 427.697 242.919C427.697 242.919 427.325 262.972 455.99 287.483C484.655 311.993 511.018 316.598 516.513 332.047C518.258 337.716 518.938 343.659 518.519 349.575L523.717 351.655C533 349.501 551.565 340.811 570.873 311.696Z" fill="#DA3F48"/>
<path d="M523.79 351.95L518.592 349.87C518.552 349.789 518.532 349.7 518.532 349.61C518.532 349.52 518.552 349.431 518.592 349.35C519.017 343.512 518.363 337.645 516.661 332.045C513.69 323.8 504.63 318.75 492.08 311.694C479.389 304.951 467.399 296.965 456.286 287.852C428.661 264.382 427.77 245.145 427.77 243.288C428.289 240.168 428.735 237.123 429.18 234.227C430.123 225.616 431.762 217.096 434.082 208.751C435.825 198.95 436.498 188.988 436.087 179.041C436.087 160.176 436.532 136.631 442.028 121.628C443.78 115.497 447.53 110.127 452.684 106.372C457.837 102.618 464.098 100.693 470.47 100.906C477.852 101.056 485.118 102.778 491.783 105.956C499.758 110.03 507.234 115.015 514.062 120.811C531.244 135.578 545.502 153.441 556.094 173.471C566.398 192.13 574.902 211.727 581.491 231.998C584.38 240.063 586.154 248.484 586.764 257.028C586.708 257.632 586.866 258.237 587.209 258.737C587.209 258.737 587.209 258.737 587.209 259.108C587.209 261.114 591.294 283.247 572.357 312.065C551.415 343.631 532.256 350.539 524.904 352.024L523.79 351.95ZM519.111 348.905C520.745 349.499 522.305 350.093 523.79 350.762C546.068 346.157 565.005 319.492 570.352 311.397C589.511 282.43 585.204 260.445 585.204 259.405C584.814 258.7 584.61 257.908 584.61 257.103C584.61 257.103 584.61 230.364 554.089 174.065C543.584 154.255 529.422 136.613 512.354 122.074C505.755 116.26 498.474 111.271 490.669 107.219C484.168 104.108 477.081 102.412 469.876 102.243C463.814 102.025 457.85 103.814 452.909 107.333C447.968 110.851 444.326 115.902 442.548 121.702C437.126 136.557 436.829 159.953 436.607 178.744C437.031 188.691 436.358 198.654 434.602 208.454C432.288 216.75 430.649 225.22 429.7 233.781C429.255 236.653 428.809 239.624 428.364 242.694C428.364 242.694 428.364 262.822 456.435 286.664C467.472 295.727 479.389 303.665 492.006 310.357C504.779 317.784 514.284 322.76 517.181 331.302C518.862 337.009 519.516 342.969 519.111 348.905Z" fill="#801B25"/>
<path d="M575.407 303.748C574.326 301.752 572.856 299.993 571.083 298.577C569.309 297.161 567.269 296.115 565.084 295.503C561.371 294.092 556.47 293.424 553.945 290.156C551.625 286.763 549.683 283.126 548.153 279.312C543.842 272.325 537.22 267.069 529.439 264.457C538.499 266.165 547.41 265.645 556.47 266.611C561.52 267.131 562.708 268.988 563.228 274.038C563.647 277.791 565.479 281.244 568.352 283.694C565.956 279.524 564.797 274.758 565.01 269.953C567.713 271.427 570.21 273.25 572.436 275.375C571.055 272.634 569.066 270.246 566.62 268.392C564.175 266.539 561.338 265.269 558.326 264.68C553.406 263.888 548.449 263.343 543.474 263.046C534.015 262.946 524.616 261.521 515.552 258.812C508.645 256.287 496.392 249.677 497.729 240.689C509.462 234.822 523.126 247.151 535.454 245.74C537.165 245.609 538.844 245.208 540.429 244.552C542.312 244.85 544.172 245.272 545.999 245.814C549.173 248.175 553.035 249.428 556.99 249.379C558.408 249.3 559.796 248.938 561.072 248.312C562.347 247.687 563.484 246.813 564.416 245.74C564.489 244.925 564.489 244.104 564.416 243.289C562.834 244.95 560.832 246.152 558.622 246.767C556.413 247.381 554.078 247.386 551.866 246.78C550.009 246.037 548.153 244.849 546.593 244.329L543.994 243.438L542.954 242.992C543.732 242.384 544.409 241.657 544.959 240.838C547.187 237.347 548.747 229.623 552.831 226.503H551.94C547.856 227.692 545.628 233.931 543.177 237.496C542.657 238.164 542.063 238.758 541.543 239.353C540.027 240.973 538.016 242.044 535.825 242.398H534.711H534.266C529.658 242.456 525.079 241.675 520.75 240.095C517.02 238.918 513.226 237.951 509.388 237.199C514.037 233.297 517.465 228.14 519.265 222.344C522.431 223.496 525.901 223.496 529.067 222.344C530.096 221.661 531 220.806 531.741 219.819C527.991 221.089 523.981 221.395 520.082 220.71C522.282 216.152 525.75 212.325 530.071 209.69C534.391 207.055 539.381 205.724 544.44 205.855L542.806 205.112C542.388 205.047 541.962 205.047 541.543 205.112C537.709 205.079 533.911 205.864 530.404 207.415C530.638 206.132 530.961 204.866 531.369 203.627C531.791 202.697 532.288 201.803 532.855 200.953L529.513 203.85C529.002 205.253 528.75 206.738 528.77 208.232C525.505 210.008 522.726 212.559 520.676 215.659C519.887 216.855 519.168 218.095 518.522 219.373C516.171 224.104 513.199 228.5 509.685 232.445C507.854 234.045 505.722 235.264 503.414 236.029C501.106 236.794 498.668 237.091 496.244 236.901L495.872 236.456C495.354 235.058 494.317 233.914 492.976 233.262C489.412 229.251 485.55 225.241 482.431 221.156C477.456 215.139 466.093 200.433 480.129 198.428C484.213 197.834 488.298 198.428 491.862 197.908L490.526 194.863C486.053 194.567 481.562 194.842 477.158 195.68C472.851 197.017 469.732 199.022 469.732 203.776C469.732 208.529 474.337 214.619 477.753 218.63C482.161 223.086 486.185 227.906 489.783 233.039C487.555 234.599 487.778 236.753 488.372 239.13C488.93 242.963 488.495 246.876 487.11 250.494C485.512 256.561 482.574 262.192 478.513 266.974C474.452 271.755 469.371 275.565 463.643 278.123C460.278 279.101 456.98 280.292 453.766 281.688C450.436 283.255 447.358 285.307 444.632 287.779C443.631 289.107 442.713 290.496 441.884 291.938C441.884 291.938 441.884 292.904 441.216 293.721C446.31 288.637 452.404 284.666 459.113 282.06C461.678 281.128 464.162 279.985 466.539 278.643C465.276 279.943 464.109 281.333 463.049 282.802C461.396 285.119 460.002 287.61 458.89 290.23C457.747 293.98 457.443 297.936 457.999 301.816C458.96 293.489 462.55 285.684 468.247 279.534C470.698 277.752 472.777 275.449 475.228 273.667C476.342 272.924 477.53 271.959 478.718 271.29C479.244 271.09 479.825 271.09 480.352 271.29C480.25 277.965 481.435 284.597 483.842 290.824C483.78 292.717 483.455 294.591 482.877 296.395C482.179 297.99 481.359 299.529 480.426 300.999C477.315 304.05 474.797 307.651 473 311.621C471.458 315.429 470.579 319.474 470.401 323.579C470.766 325.46 471.237 327.32 471.812 329.149C471.676 321.995 473.61 314.953 477.381 308.872C480.743 305.025 483.774 300.901 486.441 296.543C488.521 300.405 491.342 303.97 493.867 307.981C494.869 309.156 495.718 310.454 496.392 311.843C497.837 314.199 499.055 316.686 500.031 319.271C500.854 320.58 501.747 321.844 502.704 323.059C501.414 318.233 499.412 313.627 496.764 309.392C508.087 308.629 519.257 312.336 527.879 319.716C527.879 320.682 528.696 321.573 528.919 322.539C529.142 323.504 529.364 324.916 529.587 326.104C529.623 326.474 529.623 326.848 529.587 327.218C530.256 328.184 530.85 329.149 531.369 330.04C531.338 327.27 531.04 324.509 530.478 321.796C534.34 324.841 537.905 328.109 541.543 331.229C541.391 330.717 541.192 330.219 540.949 329.743C531.667 319.791 516.814 304.713 501.962 306.719H500.477C498.096 306.941 495.723 306.221 493.867 304.713C485.941 294.257 482.135 281.251 483.174 268.171C484.459 262.544 486.121 257.011 488.149 251.608C488.818 249.454 489.189 245.74 490.971 244.18C492.753 242.621 496.318 246.186 497.432 248.265C500.841 253.941 506.079 258.289 512.284 260.595C517.928 262.674 522.681 264.977 519.71 272.033C516.74 279.089 504.264 283.694 509.24 294.315C509.029 290.866 510.027 287.452 512.061 284.659C514.405 282.055 516.884 279.576 519.488 277.232C519.933 280.946 520.23 292.087 525.503 292.829C523.059 289.771 521.724 285.975 521.715 282.06C521.715 276.415 523.201 271.142 523.349 265.571C527.019 266.755 530.574 268.272 533.969 270.102C537.194 271.574 540.072 273.712 542.414 276.374C544.755 279.037 546.509 282.164 547.559 285.551C548.501 292.522 546.806 299.595 542.806 305.382C545.095 303.52 546.946 301.178 548.23 298.521C549.513 295.864 550.197 292.957 550.232 290.007C554.401 294.47 558.294 299.183 561.891 304.119C563.475 306.678 564.494 309.546 564.878 312.531C565.262 315.515 565.003 318.548 564.119 321.425C571.545 312.586 563.525 302.039 557.584 295.355C564.144 296.583 570.28 299.473 575.407 303.748Z" fill="#F29F93"/>
<path d="M471.812 149.555C473.285 150.444 474.889 151.095 476.565 151.486C477.469 154.318 479.079 156.874 481.243 158.913C482.421 159.931 483.661 160.874 484.956 161.736C492.382 167.9 501.665 173.545 496.912 184.018C495.444 185.679 493.499 186.846 491.343 187.36C492.011 188.771 492.68 189.885 493.051 190.628C494.061 190.468 495.055 190.22 496.021 189.885C498.145 189.358 499.997 188.061 501.22 186.246C501.525 185.703 501.774 185.131 501.962 184.538C506.578 186.428 511.753 186.428 516.369 184.538C517.804 184.464 519.241 184.464 520.676 184.538C522.753 185.35 524.993 185.655 527.211 185.429C528.837 185.649 530.486 185.649 532.112 185.429C532.874 185.31 533.621 185.111 534.34 184.835C535.787 183.642 536.953 182.146 537.756 180.453C533.672 184.909 526.543 183.126 521.196 182.606C522.493 181.633 523.622 180.454 524.538 179.116C525.752 177.188 526.584 175.045 526.988 172.802C525.472 176.144 523.271 179.13 520.528 181.567C518.35 183.037 515.695 183.621 513.101 183.201C509.678 183.435 506.248 182.876 503.076 181.567C503.254 178.259 502.877 174.946 501.962 171.763C501.696 169.145 501.696 166.507 501.962 163.89C505.864 164.768 509.936 164.51 513.696 163.147C516.004 161.763 518.001 159.917 519.562 157.725V156.462C518.348 158.346 516.506 159.741 514.364 160.399C513.447 161.048 512.448 161.572 511.393 161.958C508.207 162.253 505 162.253 501.814 161.958C501.715 157.592 502.901 153.294 505.225 149.596C507.548 145.899 510.907 142.966 514.884 141.162C515.114 141.03 515.316 140.853 515.478 140.642H513.398C509.697 141.953 506.501 144.396 504.264 147.624C503.38 144.485 503.152 141.198 503.596 137.968C502.404 140.754 502.093 143.839 502.705 146.807C502.844 147.337 503.018 147.858 503.225 148.366C503.225 148.366 503.225 148.366 503.225 148.738C501.7 151.293 500.597 154.076 499.957 156.982C498.944 161.315 498.743 165.797 499.363 170.203C498.095 169.001 496.729 167.908 495.279 166.935L490.229 163.89L487.11 161.81L484.511 159.582C487.303 156.047 488.771 151.648 488.663 147.145C488.554 142.642 486.875 138.319 483.917 134.923C483.304 134.411 482.659 133.94 481.986 133.512C484.922 136.904 486.642 141.18 486.87 145.661C487.099 150.142 485.824 154.571 483.248 158.245C481.661 156.364 480.451 154.196 479.684 151.857C478.2 149.122 477.434 146.056 477.456 142.944C477.456 143.91 477.456 144.801 476.936 145.693C476.498 147.007 476.346 148.4 476.49 149.778C476.052 149.888 475.593 149.888 475.154 149.778C474.112 149.381 473.136 148.83 472.258 148.144C471.245 147.465 470.277 146.721 469.361 145.915C469.97 147.194 470.771 148.371 471.738 149.406C471.738 149.406 471.738 149.406 471.812 149.555Z" fill="#F29F93"/>
<path d="M574.361 303.747C573.28 301.751 571.81 299.993 570.037 298.577C568.263 297.16 566.224 296.115 564.038 295.503C560.325 294.092 555.424 293.423 552.899 290.155C550.556 286.764 548.588 283.128 547.032 279.311C542.769 272.313 536.165 267.05 528.393 264.457C537.453 266.165 546.364 265.645 555.424 266.611C560.474 267.13 561.662 268.987 562.182 274.038C562.601 277.791 564.433 281.243 567.306 283.693C564.91 279.523 563.751 274.758 563.964 269.953C566.68 271.405 569.18 273.23 571.39 275.375C570.006 272.622 568.007 270.225 565.547 268.37C563.087 266.516 560.233 265.253 557.206 264.679C552.287 263.882 547.329 263.336 542.354 263.045C532.895 262.945 523.496 261.52 514.432 258.812C507.6 256.287 495.272 249.676 496.609 240.689C508.416 234.822 522.006 247.151 534.334 245.74C536.045 245.609 537.724 245.208 539.309 244.551C541.191 244.85 543.052 245.272 544.879 245.814C548.053 248.175 551.914 249.428 555.87 249.379C557.294 249.331 558.692 248.982 559.972 248.354C561.252 247.727 562.385 246.836 563.296 245.74C563.405 244.926 563.405 244.102 563.296 243.289C561.714 244.95 559.712 246.152 557.502 246.766C555.293 247.381 552.958 247.385 550.746 246.78C548.889 246.037 547.032 244.848 545.473 244.329L542.874 243.437L541.834 242.992C542.613 242.407 543.269 241.675 543.765 240.838C546.067 237.347 547.627 229.622 551.711 226.503H550.82C546.735 227.691 544.508 233.93 542.057 237.495C541.527 238.149 540.956 238.769 540.349 239.352C538.862 240.971 536.874 242.044 534.705 242.397H533.591H533.146C528.514 242.448 523.912 241.668 519.556 240.095C516.103 238.875 512.582 237.859 509.01 237.05C513.706 233.175 517.165 228.012 518.962 222.195C522.128 223.347 525.598 223.347 528.764 222.195C529.777 221.493 530.678 220.641 531.438 219.67C527.687 220.94 523.678 221.246 519.778 220.561C521.978 216.003 525.447 212.177 529.767 209.542C534.088 206.907 539.077 205.575 544.136 205.706L542.502 204.964C542.06 204.887 541.608 204.887 541.166 204.964C537.357 204.945 533.586 205.73 530.101 207.266C530.335 205.983 530.657 204.717 531.066 203.478C531.512 202.587 531.957 201.621 532.477 200.804L529.135 203.701C528.686 205.118 528.46 206.597 528.467 208.083C525.191 209.844 522.409 212.398 520.373 215.51C519.556 216.689 518.836 217.931 518.219 219.224C515.808 223.783 512.839 228.024 509.382 231.851C507.551 233.451 505.419 234.669 503.11 235.434C500.802 236.2 498.365 236.496 495.94 236.307L495.569 235.861C495.051 234.464 494.013 233.32 492.673 232.668C489.108 228.657 485.247 224.646 482.128 220.561C477.078 214.545 465.716 199.839 479.826 197.833C483.91 197.239 487.994 197.833 491.559 197.314C491.113 196.274 490.594 195.234 490.222 194.268C485.75 193.973 481.258 194.247 476.855 195.085C472.548 196.422 469.429 198.428 469.429 203.181C469.429 207.935 474.033 214.025 477.449 218.036C481.858 222.492 485.882 227.312 489.48 232.445C487.252 234.005 487.475 236.158 488.069 238.535C488.768 242.544 488.409 246.665 487.029 250.493C485.31 256.646 482.218 262.329 477.986 267.115C473.754 271.9 468.493 275.664 462.597 278.123C459.233 279.101 455.934 280.292 452.72 281.688C449.391 283.254 446.312 285.307 443.586 287.779C442.584 289.09 441.689 290.481 440.913 291.938C440.603 292.504 440.354 293.102 440.17 293.72C445.249 288.617 451.347 284.644 458.067 282.059C460.632 281.127 463.116 279.985 465.493 278.643C464.23 279.942 463.063 281.332 462.003 282.802C460.324 285.103 458.928 287.596 457.844 290.229C456.701 293.98 456.397 297.935 456.953 301.816C457.915 293.488 461.504 285.683 467.201 279.534C469.652 277.752 471.731 275.449 474.182 273.667C475.304 272.815 476.469 272.022 477.672 271.29C478.198 271.09 478.78 271.09 479.306 271.29C479.205 277.965 480.39 284.597 482.796 290.824C482.734 292.716 482.409 294.591 481.831 296.394C481.103 297.975 480.285 299.513 479.38 300.999C476.269 304.049 473.751 307.651 471.954 311.62C470.436 315.433 469.582 319.477 469.429 323.578C469.734 325.466 470.181 327.328 470.766 329.149C470.63 321.994 472.564 314.953 476.335 308.872C479.697 305.043 482.705 300.916 485.321 296.543C487.475 300.405 490.222 303.97 492.747 307.981C493.725 309.174 494.571 310.469 495.272 311.843C496.717 314.198 497.935 316.685 498.911 319.27C499.734 320.58 500.627 321.844 501.584 323.058C500.294 318.233 498.291 313.627 495.643 309.392C506.964 308.645 518.129 312.35 526.759 319.716C526.759 320.682 527.576 321.573 527.799 322.538L528.467 326.104C528.431 326.474 528.431 326.847 528.467 327.218L530.249 330.04C530.181 327.272 529.883 324.514 529.358 321.796C533.22 324.841 536.784 328.109 540.349 331.228C540.254 330.709 540.079 330.208 539.829 329.743C530.249 319.79 514.951 304.713 500.173 306.718H498.985C496.605 306.941 494.232 306.221 492.376 304.713C484.449 294.257 480.643 281.251 481.682 268.17C483.11 262.508 484.921 256.949 487.103 251.533C487.772 249.379 488.143 245.665 489.925 244.106C491.707 242.546 495.198 246.111 496.386 248.191C499.777 253.882 505.021 258.235 511.238 260.52C516.882 262.6 521.635 264.902 518.664 271.958C515.694 279.014 503.218 283.619 508.119 294.24C507.978 290.788 508.998 287.389 511.016 284.585C513.359 281.981 515.838 279.502 518.442 277.157C518.887 280.871 519.184 292.012 524.457 292.755C522.013 289.697 520.678 285.9 520.67 281.985C520.67 276.34 522.155 271.067 522.229 265.496C525.928 266.667 529.509 268.184 532.923 270.027C536.156 271.508 539.038 273.657 541.381 276.333C543.723 279.008 545.472 282.15 546.513 285.55C547.455 292.522 545.76 299.594 541.76 305.381C544.049 303.52 545.9 301.177 547.184 298.521C548.467 295.864 549.151 292.957 549.186 290.007C553.355 294.47 557.248 299.183 560.845 304.119C562.429 306.677 563.448 309.545 563.832 312.53C564.216 315.515 563.957 318.548 563.073 321.424C570.499 312.586 562.479 302.039 556.538 295.354C563.098 296.583 569.234 299.473 574.361 303.747Z" fill="#801B25"/>
<path d="M470.769 149.556C472.23 150.471 473.838 151.124 475.522 151.487C476.427 154.32 478.037 156.876 480.201 158.914C481.378 159.932 482.618 160.875 483.914 161.737C491.34 167.902 500.623 173.546 495.87 184.019C494.402 185.68 492.456 186.847 490.3 187.361C490.969 188.772 491.637 189.886 492.008 190.629C493.018 190.47 494.012 190.221 494.979 189.886C496.411 189.525 497.731 188.813 498.82 187.815C499.909 186.816 500.732 185.563 501.217 184.167C505.807 186.062 510.959 186.062 515.549 184.167C517.009 184.094 518.471 184.094 519.931 184.167C522.032 184.986 524.297 185.291 526.54 185.059C528.141 185.278 529.765 185.278 531.367 185.059C532.126 184.93 532.872 184.731 533.595 184.464C535.041 183.253 536.228 181.763 537.085 180.082C532.852 184.539 525.797 182.756 520.45 182.236C521.747 181.263 522.876 180.084 523.792 178.745C524.976 176.803 525.806 174.665 526.243 172.432C524.685 175.935 522.378 179.053 519.485 181.568C517.305 183.031 514.652 183.615 512.059 183.202C508.611 183.448 505.154 182.889 501.959 181.568C502.209 178.273 501.908 174.959 501.068 171.764C500.604 169.166 500.405 166.528 500.474 163.891C504.376 164.769 508.447 164.511 512.207 163.148C514.516 161.764 516.513 159.918 518.074 157.726V156.463C516.86 158.348 515.018 159.742 512.876 160.4C511.951 161.08 510.923 161.607 509.831 161.96C506.669 162.256 503.487 162.256 500.326 161.96C500.227 157.594 501.413 153.295 503.737 149.597C506.06 145.9 509.419 142.967 513.396 141.163C513.626 141.031 513.828 140.854 513.99 140.643H511.91C508.209 141.954 505.013 144.397 502.776 147.625C501.891 144.487 501.664 141.2 502.108 137.969C500.916 140.756 500.605 143.84 501.217 146.808C501.382 147.34 501.58 147.861 501.811 148.368C501.811 148.368 501.811 148.368 501.811 148.739C500.286 151.294 499.183 154.078 498.543 156.983C497.493 161.31 497.291 165.8 497.949 170.204C496.682 169.002 495.315 167.909 493.865 166.936L488.815 163.891L485.77 161.514C484.805 160.771 483.988 160.029 483.171 159.286C485.949 155.746 487.41 151.349 487.301 146.85C487.193 142.351 485.523 138.029 482.577 134.627C481.965 134.115 481.32 133.644 480.646 133.216C483.596 136.604 485.318 140.888 485.533 145.376C485.749 149.864 484.446 154.293 481.834 157.949C480.101 156.082 478.763 153.884 477.899 151.487C476.415 148.752 475.649 145.686 475.671 142.574C475.433 143.477 475.259 144.395 475.151 145.322C474.713 146.637 474.561 148.03 474.705 149.407C474.267 149.517 473.807 149.517 473.369 149.407C472.327 149.011 471.351 148.46 470.472 147.773C469.459 147.095 468.492 146.35 467.576 145.545C468.185 146.824 468.986 148.001 469.953 149.036C469.953 149.036 470.695 149.407 470.769 149.556Z" fill="#801B25"/>
<g style="mix-blend-mode:multiply" opacity="0.4">
<path d="M600.506 332.046C598.055 293.499 592.56 284.363 592.56 284.363C590.258 261.264 587.139 260.967 585.876 259.333C585.448 258.727 585.239 257.994 585.282 257.253C585.282 251.757 581.643 224.202 554.686 173.993C527.729 123.784 491.044 106.627 491.044 106.627C475.152 99.1994 451.24 96.8226 442.106 121.927C432.972 147.031 438.393 195.383 434.085 208.901C431.177 220.08 429.043 231.446 427.699 242.918C426.734 248.86 425.694 255.099 424.209 261.71C420.645 281.613 418.905 301.8 419.01 322.02C418.835 334.422 419.406 346.823 420.718 359.156C421.837 370.097 424.332 380.853 428.145 391.168C442.254 426.671 475.895 424.22 518.075 429.122C530.089 430.655 542.278 430.077 554.092 427.414C525.672 428.948 497.183 426.194 469.583 419.243C445.225 412.41 435.274 405.651 429.11 386.043C425.39 373.775 423.366 361.055 423.095 348.238C423.466 338.063 437.204 323.876 496.911 342.148C504.857 344.599 511.763 347.124 518.595 349.575L523.794 351.655C562.632 367.772 576.742 385.226 582.609 397.704C584.133 400.51 584.869 403.677 584.739 406.868C584.608 410.059 583.615 413.155 581.866 415.827C585.688 413.238 589.094 410.083 591.966 406.468C598.501 396.961 602.956 370.669 600.506 332.046ZM489.113 333.755C472.602 329.485 455.594 327.437 438.541 327.664C429.853 328.184 423.689 329.224 424.357 309.096C424.716 298.651 426.16 288.271 428.664 278.124C430.818 267.132 435.274 301.223 469.285 311.696C498.322 320.608 499.436 337.914 489.262 333.755H489.113ZM465.35 228.658C470.622 198.948 463.79 153.196 464.31 134.851C464.83 116.505 480.053 119.996 480.053 119.996C513.1 128.909 549.711 180.232 561.741 215.363C573.772 250.494 559.662 291.939 530.774 291.939C501.886 291.939 460.151 258.516 465.35 228.658ZM587.51 361.236C583.277 379.581 568.054 370.149 554.835 362.053C532.556 348.387 558.622 339.771 574.366 319.791C583.351 308.502 587.51 320.905 587.51 320.905C590.74 334.155 590.74 347.987 587.51 361.236Z" fill="#DA3F48"/>
</g>
<g style="mix-blend-mode:multiply" opacity="0.4">
<path d="M432.299 242.471C435.121 246.185 438.314 252.87 443.364 249.899C447.527 246.904 450.913 242.957 453.241 238.386C458.43 229.312 461.359 219.122 461.781 208.677C461.36 195.968 459.441 183.353 456.063 171.095C451.31 149.555 446.557 114.573 466.459 100.832C460.825 101.31 455.47 103.491 451.106 107.087C446.742 110.682 443.575 115.521 442.027 120.96C432.819 146.065 438.314 194.417 434.007 207.934C431.542 217.171 429.78 226.581 428.734 236.084C429.655 238.352 430.852 240.497 432.299 242.471Z" fill="#DA3F48"/>
</g>
<g style="mix-blend-mode:screen">
<path d="M437.13 396.961C437.13 396.961 444.556 410.553 469.954 416.643C495.351 422.734 532.259 427.858 547.78 425.11C526.828 424.542 505.973 422.055 485.474 417.683C455.25 410.404 443.665 404.388 437.13 396.961Z" fill="#DA3F48"/>
</g>
<g style="mix-blend-mode:screen">
<path d="M578.818 317.487C570.377 328.29 560.594 337.974 549.707 346.305C562.592 340.56 572.941 330.314 578.818 317.487Z" fill="#DA3F48"/>
</g>
<g style="mix-blend-mode:screen">
<path d="M469.876 178.301C469.876 178.301 469.876 168.646 468.762 153.197C467.648 137.748 463.267 121.482 476.634 121.185C475.569 121.25 474.529 121.529 473.574 122.004C472.619 122.48 471.77 123.143 471.077 123.954C470.384 124.765 469.862 125.707 469.541 126.724C469.219 127.742 469.106 128.813 469.208 129.875C469.282 138.268 472.253 168.349 469.876 178.301Z" fill="#DA3F48"/>
</g>
<g style="mix-blend-mode:screen">
<path d="M459.109 105.438C453.349 109.739 449.172 115.823 447.227 122.744C445.353 135.77 445.83 149.028 448.638 161.886C450.272 173.101 457.03 199.691 455.619 213.209C453.866 225.486 450.076 237.385 444.405 248.414C448.841 242.191 452.414 235.395 455.025 228.212C459.136 212.793 459.008 196.549 454.653 181.197C451.102 165.955 448.989 150.413 448.341 134.776C448.199 128.335 449.309 121.928 451.609 115.911C453.48 112.009 456.018 108.465 459.109 105.438Z" fill="#DA3F48"/>
</g>
<path d="M449.236 312.586L450.35 313.774L451.613 315.186L453.172 317.042L455.029 319.271C455.697 320.088 456.365 320.905 457.034 321.87C457.702 322.836 458.445 323.653 459.113 324.618C459.781 325.584 460.45 326.624 461.044 327.664C461.072 327.935 461.072 328.209 461.044 328.481L461.861 330.189C462.091 330.721 462.289 331.267 462.455 331.823C462.455 332.343 462.455 332.937 463.049 333.457C463.2 333.995 463.324 334.54 463.42 335.091C463.454 335.61 463.454 336.131 463.42 336.651V338.21C463.461 338.68 463.461 339.152 463.42 339.622C463.494 340.437 463.494 341.257 463.42 342.073C463.46 342.418 463.46 342.767 463.42 343.112V343.558C463.42 343.558 463.42 343.558 463.42 344.004C463.42 344.449 463.42 344.524 463.42 344.672C463.396 344.845 463.396 345.02 463.42 345.192C463.456 345.021 463.456 344.844 463.42 344.672C463.456 344.451 463.456 344.225 463.42 344.004V343.112C463.42 343.112 463.42 342.444 463.42 342.073C463.42 341.701 463.42 340.587 463.42 339.696C463.42 338.805 463.42 338.805 463.42 338.359C463.42 337.913 463.42 337.393 463.42 336.948C463.42 336.502 462.826 334.942 462.455 333.903C462.084 332.863 461.638 331.823 461.192 330.709C460.975 330.175 460.727 329.654 460.45 329.149C460.208 328.623 459.909 328.124 459.559 327.664C458.965 326.624 458.37 325.658 457.702 324.693C457.338 324.226 457.015 323.729 456.737 323.207L455.771 321.87C454.509 320.013 453.321 318.231 452.281 316.82L449.905 313.18L449.236 312.215V312.586Z" fill="#0083B1"/>
<path d="M469.734 342.295C469.715 342.122 469.715 341.948 469.734 341.775C469.62 341.319 469.471 340.872 469.289 340.438C469.318 340.142 469.318 339.843 469.289 339.547C469.31 339.399 469.31 339.249 469.289 339.101V338.656C469.267 338.508 469.267 338.358 469.289 338.21L468.843 337.838L467.952 337.096L467.061 336.353C466.771 336.153 466.498 335.929 466.244 335.685L465.501 335.016L464.981 334.348V333.753L466.689 334.793L467.655 335.387L468.62 336.204C468.804 336.313 468.957 336.466 469.066 336.65L469.511 337.096V337.616C469.497 337.789 469.497 337.963 469.511 338.136V338.73C469.555 338.9 469.555 339.079 469.511 339.25C469.546 339.571 469.546 339.894 469.511 340.215C469.543 340.71 469.543 341.206 469.511 341.701C469.565 341.906 469.64 342.105 469.734 342.295Z" fill="#0083B1"/>
<path d="M435.645 340.364C435.311 340.107 435.012 339.807 434.754 339.473L434.234 338.656C434.234 338.656 434.234 338.062 433.714 337.691C433.195 337.319 433.714 336.874 433.714 336.428V335.685C433.677 335.439 433.677 335.189 433.714 334.943C433.68 334.796 433.68 334.643 433.714 334.497C433.68 334.25 433.68 334 433.714 333.754V333.011V332.566V331.823C433.814 331.454 433.991 331.11 434.235 330.816C434.478 330.521 434.782 330.282 435.125 330.115L436.091 328.629L438.244 325.733L440.324 322.613C440.992 321.573 441.66 320.533 442.255 319.494L443.963 316.3C444.482 315.26 444.854 314.22 445.225 313.255C445.581 312.315 445.854 311.345 446.042 310.358V309.095C446.042 309.095 446.042 308.65 446.042 308.427C446.01 308.23 446.01 308.029 446.042 307.833V305.902C446.042 305.382 446.042 304.936 446.042 304.639C446.042 304.639 446.042 305.382 446.413 305.902V306.867C446.413 306.867 446.413 307.536 446.413 307.907C446.523 308.795 446.523 309.693 446.413 310.581C446.316 311.613 446.117 312.633 445.819 313.626C445.515 314.737 445.143 315.828 444.705 316.894C444.185 318.008 443.666 319.122 443.071 320.236C442.477 321.35 441.735 322.465 441.066 323.504L438.913 326.624L436.685 329.521L435.645 330.857L435.125 331.526V332.194V332.863V333.531C435.125 333.531 435.125 333.977 435.125 334.2V334.794C435.089 335.189 435.089 335.587 435.125 335.982C435.244 336.61 435.47 337.213 435.794 337.765C436.011 338.132 436.259 338.48 436.536 338.805C436.33 338.687 436.084 338.655 435.855 338.718C435.625 338.781 435.429 338.932 435.311 339.139C435.193 339.346 435.162 339.591 435.224 339.821C435.287 340.051 435.438 340.246 435.645 340.364Z" fill="#0083B1"/>
<path d="M440.543 337.54C440.579 337.368 440.579 337.191 440.543 337.02C440.578 336.798 440.578 336.573 440.543 336.351C440.526 336.129 440.526 335.905 440.543 335.683L439.949 335.163L439.058 334.643C438.76 334.514 438.484 334.339 438.241 334.123L437.424 333.529V333.083C437.38 332.913 437.38 332.734 437.424 332.563C437.366 332.448 437.335 332.321 437.335 332.192C437.335 332.063 437.366 331.936 437.424 331.821C437.41 331.648 437.41 331.474 437.424 331.301V331.746C437.424 331.746 437.424 331.746 437.424 332.192C437.35 332.383 437.35 332.595 437.424 332.786C437.424 332.786 437.424 332.786 437.87 332.786L438.538 333.232L439.429 333.678L440.32 334.123L440.766 334.494C441.068 334.712 441.321 334.99 441.509 335.312C441.522 335.46 441.522 335.609 441.509 335.757C441.541 335.904 441.541 336.056 441.509 336.203C441.575 336.496 441.575 336.801 441.509 337.094C441.509 337.094 441.509 337.614 441.509 337.837C441.484 338.009 441.484 338.184 441.509 338.357C441.28 338.346 441.062 338.26 440.887 338.112C440.713 337.964 440.592 337.763 440.543 337.54Z" fill="#0083B1"/>
<path d="M478.195 337.541V337.095C478.236 336.725 478.236 336.352 478.195 335.981C478.153 335.711 478.153 335.435 478.195 335.164C478.195 335.164 478.195 334.57 478.195 334.199C478.195 333.827 477.824 333.605 477.675 333.233C477.507 332.847 477.308 332.474 477.081 332.119V331.525V331.005L476.19 329.817L475.745 329.148V328.405L475.299 327.663C475.319 327.391 475.319 327.118 475.299 326.846C475.299 326.326 475.299 325.732 474.779 325.212C474.743 324.618 474.743 324.023 474.779 323.429C474.779 322.835 474.779 322.241 474.779 321.647C474.742 321.053 474.742 320.458 474.779 319.864C474.779 318.601 474.779 317.487 474.779 316.299C474.855 315.211 474.855 314.119 474.779 313.031C474.64 312.009 474.366 311.009 473.962 310.06C473.946 309.837 473.946 309.614 473.962 309.391V308.723V308.129L473.22 307.163C473.013 306.834 472.764 306.534 472.477 306.272C472.295 305.991 472.069 305.74 471.809 305.529L471.215 304.935L470.026 303.895H470.398L471.363 304.564L472.031 305.084L472.774 305.752L473.665 306.569L474.482 307.609V308.129V308.797V309.466C474.95 310.461 475.299 311.508 475.522 312.585C475.598 313.748 475.598 314.914 475.522 316.076C475.522 317.339 475.522 318.527 475.522 319.641V321.424C475.522 321.944 475.522 322.538 475.522 323.132C475.522 323.726 475.522 323.652 475.522 323.949C475.493 324.221 475.493 324.494 475.522 324.766C475.522 325.286 475.522 325.806 475.522 326.326V327.069V327.737V328.48C475.672 328.66 475.797 328.86 475.893 329.074C475.893 329.52 476.413 329.965 476.71 330.337C476.696 330.534 476.696 330.733 476.71 330.931V331.599C476.952 331.972 477.151 332.371 477.304 332.788V333.902V334.867C477.339 335.138 477.339 335.413 477.304 335.684C478.121 337.541 478.195 337.541 478.195 337.541Z" fill="#0083B1"/>
<path d="M477.229 329.446V328.926C477.229 328.926 477.229 328.183 476.709 327.589L475.892 325.881L475.298 324.99L474.556 324.247L474.184 323.801V323.281C473.919 322.964 473.695 322.615 473.516 322.241C473.474 321.896 473.474 321.547 473.516 321.202C473.48 320.881 473.48 320.557 473.516 320.236C473.482 319.965 473.482 319.69 473.516 319.419V318.751V318.231C473.497 318.403 473.497 318.578 473.516 318.751C473.558 318.946 473.558 319.149 473.516 319.345C473.528 319.592 473.528 319.84 473.516 320.088C473.742 320.678 474.015 321.249 474.333 321.796C474.505 322.11 474.703 322.408 474.927 322.687H475.298C475.86 323.27 476.313 323.949 476.635 324.692C476.935 325.333 477.159 326.006 477.303 326.698C477.335 327.193 477.335 327.689 477.303 328.183C477.165 328.59 477.139 329.026 477.229 329.446Z" fill="#0083B1"/>
<path d="M469.511 297.659C469.535 297.856 469.535 298.055 469.511 298.253C469.662 298.837 469.662 299.451 469.511 300.035C469.511 300.035 469.511 300.852 468.991 301.298C468.692 301.712 468.369 302.109 468.026 302.486L467.283 303.081C466.661 303.424 465.982 303.651 465.278 303.749C463.729 303.82 462.197 303.404 460.896 302.561L458.966 301.075L457.258 299.293C456.775 298.643 456.254 298.023 455.698 297.436C455.224 296.953 454.637 296.596 453.99 296.396C453.267 296.162 452.52 296.013 451.762 295.95H445.896H445.227H444.485H443.816C442.966 295.649 442.165 295.224 441.44 294.688L438.915 292.979L435.573 289.786L433.939 288.449L432.38 287.186C431.875 286.778 431.403 286.331 430.969 285.849C430.559 285.429 430.209 284.954 429.929 284.438C429.442 283.626 429.068 282.751 428.815 281.838C428.815 281.838 428.815 281.838 428.815 281.318C428.815 280.799 428.815 280.947 428.815 280.873V280.427C428.815 280.799 428.815 280.799 428.815 281.17C428.848 281.317 428.848 281.469 428.815 281.616V282.061C429.152 282.887 429.602 283.662 430.152 284.364C430.876 285.21 431.728 285.936 432.677 286.518L434.385 287.632L435.276 288.226L436.167 288.894L439.732 291.865C440.888 292.89 442.222 293.696 443.668 294.242H444.188H444.782H451.094C451.999 294.369 452.893 294.568 453.767 294.836H454.51H454.881C455.287 295.144 455.661 295.492 455.995 295.876L457.555 297.807C458.075 298.401 458.52 298.995 459.04 299.515C459.549 300.049 460.095 300.545 460.674 301.001C461.176 301.37 461.726 301.669 462.307 301.892C462.873 301.989 463.45 301.989 464.015 301.892C464.53 301.994 465.06 301.994 465.575 301.892H466.243C466.583 301.589 466.906 301.267 467.209 300.927C467.434 300.597 467.633 300.249 467.803 299.887C467.913 299.348 467.913 298.792 467.803 298.253C468.114 298.289 468.429 298.254 468.725 298.151C469.021 298.048 469.289 297.88 469.511 297.659Z" fill="#0083B1"/>
<path opacity="0.5" d="M410.62 238.162H404.604C401.859 238.31 399.107 238.31 396.361 238.162C398.826 238.492 401.323 238.492 403.787 238.162C406.09 238.162 408.466 238.162 411.214 238.162C411.016 238.146 410.817 238.146 410.62 238.162Z" fill="white"/>
<path opacity="0.5" d="M423.617 222.937C423.617 227.394 422.874 231.85 422.874 236.307C423.89 231.926 424.142 227.403 423.617 222.937Z" fill="white"/>
<path opacity="0.5" d="M435.125 223.233C434.223 225.295 433.43 227.402 432.748 229.546C432.074 231.961 431.847 234.478 432.08 236.974C432.08 234.597 432.748 232.146 433.194 229.546C433.64 226.947 434.531 225.313 435.125 223.159C435.125 223.159 435.125 223.085 435.125 223.233Z" fill="white"/>
<path opacity="0.5" d="M474.483 271.513C472.643 271.953 470.852 272.575 469.136 273.37C470.98 273.052 472.776 272.503 474.483 271.736C474.483 271.736 474.705 271.439 474.483 271.513Z" fill="white"/>
<path opacity="0.5" d="M369.774 296.768C367.145 295.924 364.43 295.376 361.68 295.134C361.68 295.134 364.502 295.728 365.913 296.174C367.178 296.509 368.47 296.733 369.774 296.842C369.774 296.842 370.071 296.842 369.774 296.768Z" fill="white"/>
<path opacity="0.5" d="M367.544 311.399C365.728 311.065 363.865 311.065 362.049 311.399C363.865 311.741 365.728 311.741 367.544 311.399C367.693 311.473 367.544 311.399 367.544 311.399Z" fill="white"/>
<path opacity="0.5" d="M390.566 300.407L388.635 300.778C389.29 300.966 389.985 300.966 390.64 300.778L390.566 300.407Z" fill="white"/>
<path opacity="0.5" d="M459.48 311.919C458.467 311.723 457.506 311.319 456.658 310.731C455.868 309.879 455.328 308.825 455.098 307.686C455.098 307.686 454.579 307.686 454.653 307.686C454.653 310.062 456.509 312.81 459.331 312.365C459.554 312.439 459.777 311.993 459.48 311.919Z" fill="white"/>
<path opacity="0.5" d="M452.649 304.266C452.055 304.266 451.312 304.266 450.941 303.82C450.57 303.375 450.421 303.82 450.941 303.82C451.168 304.123 451.481 304.348 451.839 304.468C452.197 304.587 452.584 304.595 452.946 304.489C452.946 304.489 452.872 304.34 452.649 304.266Z" fill="white"/>
<path opacity="0.5" d="M464.31 309.246C463.978 309.493 463.599 309.67 463.196 309.766C463.196 309.766 463.196 310.434 463.196 310.36C463.704 310.206 464.164 309.924 464.533 309.543C464.533 309.543 464.83 309.097 464.31 309.246Z" fill="white"/>
<path opacity="0.5" d="M407.274 310.06C405.789 310.877 403.932 311.62 402.67 310.06C402.976 310.446 403.365 310.759 403.809 310.973C404.253 311.188 404.739 311.3 405.232 311.3C405.725 311.3 406.211 311.188 406.655 310.973C407.099 310.759 407.488 310.446 407.794 310.06C407.794 310.06 407.497 309.986 407.274 310.06Z" fill="white"/>
<path opacity="0.5" d="M407.947 301.89C407.947 301.89 407.947 303.97 407.279 304.638C407.068 304.844 406.812 304.997 406.53 305.085C406.249 305.172 405.951 305.191 405.661 305.14C405.37 305.089 405.096 304.97 404.861 304.793C404.626 304.615 404.437 304.384 404.309 304.118C405.423 308.575 410.621 303.376 407.947 301.89Z" fill="white"/>
<path opacity="0.5" d="M388.861 325.881C388.726 326.311 388.507 326.71 388.217 327.055C387.927 327.4 387.572 327.685 387.171 327.892C386.771 328.099 386.333 328.225 385.884 328.262C385.435 328.299 384.983 328.247 384.554 328.109C385.038 328.32 385.562 328.425 386.09 328.417C386.618 328.409 387.139 328.289 387.617 328.064C388.095 327.839 388.519 327.515 388.862 327.113C389.204 326.711 389.457 326.24 389.603 325.732C389.603 325.732 388.935 325.509 388.861 325.881Z" fill="white"/>
<path opacity="0.5" d="M475.299 334.941C473.906 338.582 471.794 341.906 469.089 344.713C466.384 347.52 463.142 349.754 459.556 351.281C459.556 351.281 459.556 351.95 459.556 351.727C463.309 350.34 466.7 348.123 469.478 345.243C472.255 342.362 474.347 338.891 475.596 335.09C475.596 335.09 475.373 334.718 475.299 334.941Z" fill="white"/>
<path opacity="0.5" d="M445.077 351.726C439.858 355.499 434.317 358.805 428.517 361.604C425.672 362.767 422.743 363.711 419.754 364.427C416.314 365.588 412.687 366.092 409.061 365.912C412.076 366.186 415.116 365.934 418.046 365.17C421.283 364.54 424.462 363.646 427.552 362.496C433.937 360.029 439.918 356.624 445.3 352.394C445.3 352.394 445.3 351.578 445.077 351.726Z" fill="white"/>
<path opacity="0.5" d="M435.865 349.055C427.613 354.103 418.578 357.743 409.131 359.825C409.131 359.825 409.131 360.344 409.131 360.27C418.735 358.555 427.869 354.835 435.939 349.352C435.939 349.352 436.088 348.906 435.865 349.055Z" fill="white"/>
<path opacity="0.5" d="M435.943 342.966C431.655 345.401 427.215 347.56 422.65 349.427C422.65 349.799 422.65 349.427 422.65 349.427C427.361 347.79 431.871 345.622 436.092 342.966H435.943Z" fill="white"/>
<path opacity="0.5" d="M428.888 343.262C426.897 344.407 424.81 345.376 422.65 346.159C424.894 345.538 427.043 344.613 429.037 343.411C429.037 343.411 429.185 343.188 428.888 343.262Z" fill="white"/>
<path opacity="0.5" d="M427.697 340.734C426.657 340.734 425.766 341.774 424.652 342.071C425.705 341.716 426.723 341.268 427.697 340.734C428.068 340.66 427.697 340.734 427.697 340.734Z" fill="white"/>
<path opacity="0.5" d="M440.468 317.638C435.69 320.253 430.725 322.512 425.615 324.397C430.994 322.907 436.142 320.682 440.913 317.786C440.913 317.786 440.69 317.489 440.468 317.638Z" fill="white"/>
<path opacity="0.5" d="M439.354 315.781C437.431 317.015 435.42 318.107 433.339 319.049C433.339 319.495 433.339 319.049 433.339 319.049C435.526 318.249 437.579 317.122 439.428 315.707C439.428 315.707 439.577 315.633 439.354 315.781Z" fill="white"/>
<path opacity="0.5" d="M433.048 316.969C431.539 317.542 430.002 318.038 428.443 318.455C430.022 318.106 431.563 317.609 433.048 316.969Z" fill="white"/>
<path opacity="0.5" d="M433.567 314.591C432.675 315.111 431.71 315.482 430.819 315.928C431.818 315.619 432.769 315.169 433.641 314.591C433.641 314.591 433.715 314.517 433.567 314.591Z" fill="white"/>
<path opacity="0.5" d="M472.256 379.95C471.678 380.904 470.816 381.654 469.79 382.093C468.765 382.533 467.628 382.641 466.538 382.401C467.716 382.842 469.015 382.827 470.183 382.36C471.35 381.893 472.301 381.007 472.85 379.876C472.85 379.876 472.256 379.653 472.256 379.95Z" fill="white"/>
<path opacity="0.5" d="M459.93 382.105C459.12 382.74 458.187 383.2 457.19 383.456C456.193 383.712 455.153 383.757 454.138 383.59C455.21 383.915 456.35 383.941 457.436 383.666C458.522 383.392 459.513 382.826 460.301 382.03C460.301 382.03 460.153 382.105 459.93 382.105Z" fill="white"/>
<path opacity="0.5" d="M463.637 374.679C463.815 375.301 463.841 375.957 463.712 376.59C463.583 377.224 463.302 377.817 462.894 378.319C462.623 378.609 462.295 378.84 461.931 378.998C461.567 379.157 461.175 379.238 460.778 379.238C460.381 379.238 459.988 379.157 459.624 378.998C459.26 378.84 458.932 378.609 458.661 378.319C459.195 378.941 459.947 379.335 460.763 379.418C461.578 379.501 462.395 379.267 463.043 378.765C463.563 378.235 463.901 377.554 464.008 376.819C464.115 376.085 463.985 375.335 463.637 374.679Z" fill="white"/>
<path opacity="0.5" d="M466.387 373.269C466.05 373.383 465.685 373.383 465.348 373.269C465.545 373.362 465.761 373.41 465.979 373.41C466.197 373.41 466.413 373.362 466.61 373.269C466.61 373.269 466.61 373.195 466.387 373.269Z" fill="white"/>
<path opacity="0.5" d="M473.667 373.044C474.281 373.203 474.81 373.593 475.142 374.133C475.475 374.673 475.585 375.321 475.449 375.941C475.449 375.941 475.449 375.941 475.969 375.941C476.637 374.678 475.078 373.416 473.667 373.044Z" fill="white"/>
<path opacity="0.5" d="M448.866 382.106C448.257 382.004 447.704 381.688 447.307 381.215C447.089 380.871 446.973 380.471 446.973 380.064C446.973 379.656 447.089 379.257 447.307 378.913C447.033 379.28 446.855 379.711 446.79 380.165C446.725 380.619 446.775 381.082 446.935 381.512C447.15 381.833 447.436 382.101 447.771 382.294C448.106 382.487 448.48 382.601 448.866 382.626C448.866 382.626 449.089 382.106 448.866 382.106Z" fill="white"/>
<path opacity="0.5" d="M372.815 359.005C372.815 359.005 372.221 359.005 372.295 359.005C372.667 364.13 372.295 369.255 372.295 374.305C372.295 374.305 372.295 374.305 372.741 374.305C373.244 369.219 373.269 364.096 372.815 359.005Z" fill="white"/>
<path opacity="0.5" d="M413.439 382.775C413.178 384.672 413.178 386.596 413.439 388.494C413.439 388.494 413.884 388.494 413.884 388.494C413.998 386.576 413.848 384.652 413.439 382.775Z" fill="white"/>
</svg>
