<svg width="183" height="40" viewBox="0 0 183 40" fill="none" xmlns="http://www.w3.org/2000/svg">
<g clip-path="url(#clip0_1159_26044)">
<path d="M19.9975 33.9912C17.6948 33.9925 15.4274 33.4257 13.3962 32.341C11.365 31.2564 9.63268 29.6875 8.35289 27.7733C7.07309 25.859 6.28531 23.6584 6.05935 21.3669C5.83339 19.0753 6.17621 16.7636 7.05747 14.6362C7.93874 12.5088 9.33123 10.6316 11.1115 9.17113C12.8917 7.71065 15.0048 6.71182 17.2634 6.26334C19.5219 5.81485 21.8563 5.9306 24.0595 6.60008C26.2627 7.26956 28.2667 8.4721 29.8939 10.1013L34.132 5.86346C31.3365 3.06813 27.7749 1.16446 23.8975 0.393292C20.0201 -0.377875 16.0011 0.0179654 12.3488 1.53089C8.6964 3.04382 5.57466 5.60576 3.37833 8.89284C1.18201 12.1799 0.00976562 16.0446 0.00976562 19.9979C0.00976562 23.9512 1.18201 27.8156 3.37833 31.1027C5.57466 34.3898 8.6964 36.952 12.3488 38.4649C16.0011 39.9778 20.0201 40.3737 23.8975 39.6025C27.7749 38.8313 31.3365 36.9277 34.132 34.1323L29.8939 29.8942C28.596 31.1959 27.0534 32.2282 25.3549 32.9314C23.6565 33.6345 21.8357 33.9946 19.9975 33.9912Z" fill="#08BDBA"/>
<path d="M19.9972 12C18.4153 12 16.869 12.469 15.5537 13.3479C14.2384 14.2267 13.2132 15.4759 12.6079 16.9374C12.0025 18.3989 11.8441 20.007 12.1527 21.5585C12.4613 23.11 13.2231 24.5351 14.3417 25.6536C15.4602 26.7722 16.8854 27.534 18.4368 27.8426C19.9883 28.1512 21.5965 27.9928 23.058 27.3874C24.5195 26.782 25.7686 25.7569 26.6474 24.4416C27.5263 23.1263 27.9954 21.58 27.9954 19.9981H19.9972V12Z" fill="#08BDBA"/>
<path d="M41.4523 22.2786L47.9892 20.0025L41.4523 17.7264C40.9348 17.5494 40.4724 17.2405 40.1108 16.8302C39.7492 16.4199 39.5008 15.9224 39.3901 15.3868C39.3901 15.2457 39.3309 15.1271 39.3127 14.986C39.196 14.4823 39.2061 13.9577 39.3419 13.4588C39.4778 12.9599 39.7352 12.5024 40.0912 12.1273L43.3505 8.64941L37.9516 11.2669L32.5527 13.8891C33.4895 15.8023 33.9765 17.9043 33.9765 20.0345C33.9765 22.1647 33.4895 24.2668 32.5527 26.18L35.7393 27.7186L43.3369 31.415L40.0775 27.9371C39.7218 27.5618 39.4642 27.1045 39.3276 26.6059C39.191 26.1072 39.1797 25.5825 39.2945 25.0784C39.3327 24.9473 39.3601 24.8132 39.3764 24.6776C39.4904 24.1441 39.7395 23.6488 40.0998 23.2391C40.4601 22.8294 40.9195 22.5192 41.434 22.338L41.4523 22.2786Z" fill="#022625"/>
<path d="M113.044 10.2519H117.014V24.7462C116.999 25.0789 117.043 25.4113 117.141 25.7293C117.209 25.9297 117.344 26.1003 117.524 26.2119C117.745 26.3054 117.984 26.3491 118.225 26.3395C118.415 26.3403 118.605 26.3311 118.794 26.3121C118.923 26.2924 119.051 26.2635 119.176 26.2257V29.3437C118.853 29.4677 118.519 29.5622 118.179 29.626C117.775 29.6991 117.365 29.7327 116.955 29.7263C116.24 29.743 115.533 29.5868 114.892 29.2711C114.29 28.9506 113.81 28.4401 113.527 27.8189C113.173 26.9836 113.008 26.0805 113.044 25.1741V10.2519ZM119.089 14.0486V17.0529H111.237V14.0622L119.089 14.0486ZM109.63 13.9348L109.575 17.9042C109.359 17.8616 109.14 17.8328 108.92 17.8177C108.674 17.7995 108.456 17.7904 108.264 17.7904C107.874 17.7804 107.486 17.8534 107.126 18.0044C106.816 18.1349 106.546 18.3453 106.343 18.6143C106.129 18.9145 105.975 19.2529 105.888 19.6112C105.777 20.0583 105.716 20.5163 105.706 20.9769L104.95 20.6902C104.944 19.7657 105.021 18.8425 105.178 17.9315C105.31 17.1717 105.549 16.4344 105.888 15.7419C106.15 15.1801 106.534 14.6839 107.013 14.2898C107.443 13.9544 107.974 13.7746 108.519 13.7799C108.721 13.7808 108.922 13.7991 109.12 13.8346C109.287 13.8506 109.452 13.8843 109.612 13.9348H109.63ZM105.988 17.4763V29.4393H102.005V14.0622H105.761L105.988 17.4763ZM95.5183 20.0391V22.429H94.057C93.7157 22.4205 93.3764 22.4824 93.0601 22.6111C92.7894 22.7295 92.5507 22.9105 92.3636 23.1392C92.1695 23.3634 92.0239 23.6253 91.9357 23.9085C91.8482 24.2133 91.8053 24.5292 91.8083 24.8462C91.7989 25.1659 91.8515 25.4843 91.963 25.784C92.0486 26.0219 92.2082 26.226 92.4182 26.3666C92.6402 26.5055 92.8985 26.5754 93.1603 26.5671C93.5563 26.5759 93.948 26.4833 94.2983 26.2984C94.589 26.1467 94.8341 25.9205 95.0085 25.6429C95.0816 25.5415 95.1331 25.4261 95.1598 25.3039C95.1864 25.1817 95.1876 25.0554 95.1632 24.9327L96.0737 26.4804C95.9537 26.8585 95.8014 27.2256 95.6184 27.5776C95.4282 27.9606 95.1846 28.3147 94.8947 28.6291C94.5639 28.9907 94.1585 29.2761 93.7065 29.4656C93.2546 29.655 92.7669 29.744 92.2772 29.7263C91.482 29.7364 90.6979 29.5404 90.0011 29.1573C89.3245 28.7855 88.7637 28.2342 88.3805 27.564C87.9753 26.8193 87.7742 25.9805 87.7978 25.133C87.7874 24.4135 87.9125 23.6986 88.1665 23.0254C88.4112 22.4061 88.8016 21.8549 89.3046 21.4186C89.8591 20.9436 90.5097 20.5942 91.2119 20.3943C92.089 20.1423 92.9989 20.0225 93.9114 20.0391H95.5183ZM95.0449 25.8978V18.7873C95.0599 18.4097 95.0028 18.0327 94.8764 17.6766C94.7904 17.4261 94.6176 17.2145 94.3894 17.0802C94.1588 16.9417 93.8934 16.8722 93.6246 16.8799C93.3249 16.8698 93.0284 16.944 92.7688 17.094C92.5392 17.239 92.3609 17.4522 92.2589 17.7039C92.1466 18.0098 92.0925 18.3341 92.0996 18.6599H88.1028C88.0989 18.0135 88.2291 17.3734 88.4852 16.7799C88.7439 16.1836 89.1273 15.6495 89.6096 15.2138C90.1335 14.7468 90.7424 14.3852 91.4031 14.1486C93.0554 13.594 94.8509 13.644 96.4697 14.2898C97.2565 14.6231 97.9177 15.1968 98.3589 15.9286C98.858 16.8159 99.0992 17.8249 99.0554 18.842V25.702C99.0467 26.4052 99.0893 27.1082 99.1828 27.8052C99.2591 28.2857 99.3984 28.754 99.597 29.1982V29.4393H95.5865C95.382 28.9278 95.2428 28.3925 95.1723 27.8461C95.0863 27.2002 95.0437 26.5494 95.0449 25.8978ZM77.2367 21.2183L76.1533 21.2454C76.1449 20.2406 76.2549 19.2385 76.4811 18.2594C76.6792 17.4197 77.0112 16.6172 77.4643 15.883C77.8509 15.2485 78.381 14.7136 79.0121 14.3216C79.6258 13.9513 80.3303 13.7592 81.0469 13.7663C81.6412 13.7581 82.231 13.8694 82.7813 14.0939C83.3174 14.3115 83.788 14.6644 84.147 15.1182C84.5814 15.6606 84.8922 16.2914 85.0574 16.9664C85.2841 17.8679 85.3897 18.7956 85.3715 19.725V29.4393H81.3883V19.6977C81.4064 19.1683 81.3387 18.6396 81.1881 18.1318C81.0934 17.8023 80.8812 17.5189 80.5917 17.3352C80.2873 17.1661 79.9428 17.0828 79.5948 17.094C79.2034 17.0824 78.8186 17.1972 78.4977 17.4216C78.1927 17.6463 77.9486 17.9436 77.7875 18.2865C77.5919 18.7017 77.4584 19.1436 77.3915 19.5977C77.3047 20.1336 77.2591 20.6754 77.255 21.2183H77.2367ZM77.8058 7.58887V29.4393H73.8226V7.58887H77.8058ZM67.3767 22.5428H71.5147C71.5051 23.9095 71.1844 25.2561 70.5769 26.4804C70.0346 27.5182 69.1859 28.3639 68.1461 28.9023C66.9691 29.4802 65.6692 29.763 64.3586 29.7263C63.3124 29.7451 62.2733 29.5515 61.3041 29.1573C60.4223 28.7741 59.6427 28.1894 59.028 27.4502C58.3669 26.6343 57.8818 25.6903 57.6032 24.6778C57.277 23.4285 57.1239 22.1405 57.148 20.8495V17.3352C57.1274 16.0417 57.2945 14.7521 57.6441 13.5067C57.9383 12.4908 58.432 11.5439 59.0963 10.7209C59.7074 9.97791 60.488 9.39248 61.3724 9.01387C62.3365 8.6116 63.3733 8.41309 64.4178 8.43106C65.7309 8.38514 67.0338 8.67837 68.2007 9.28238C69.2179 9.8551 70.0371 10.7236 70.5496 11.7725C71.1512 13.0138 71.495 14.364 71.5602 15.7419H67.3904C67.4027 14.9572 67.2921 14.1754 67.0626 13.4249C66.9271 12.9223 66.6003 12.4927 66.1522 12.2277C65.6136 11.9641 65.0167 11.8418 64.4178 11.8725C63.9259 11.8599 63.4379 11.9628 62.993 12.1731C62.5829 12.3717 62.242 12.6889 62.0142 13.0835C61.7253 13.6047 61.5326 14.1737 61.4452 14.7632C61.3201 15.6009 61.2623 16.4473 61.2723 17.2943V20.8358C61.2638 21.6731 61.3171 22.5099 61.4316 23.3395C61.5056 23.9224 61.6731 24.4896 61.9278 25.0192C62.1257 25.4227 62.4437 25.7552 62.8382 25.9707C63.3104 26.1862 63.8262 26.2889 64.345 26.271C64.9259 26.2955 65.5049 26.1882 66.0384 25.957C66.4967 25.724 66.845 25.3203 67.008 24.8327C67.2604 24.0955 67.3911 23.322 67.3949 22.5428H67.3767Z" fill="#08BDBA"/>
<path d="M180.089 22.4838V21.0499C180.1 20.3 180.033 19.5508 179.889 18.8148C179.796 18.254 179.594 17.7172 179.292 17.2353C179.038 16.8345 178.679 16.5103 178.255 16.2975C177.784 16.0766 177.268 15.9691 176.748 15.9834C176.282 15.9739 175.822 16.0819 175.41 16.2975C175.027 16.5106 174.692 16.8003 174.426 17.1486C174.143 17.5181 173.913 17.9258 173.743 18.3595C173.565 18.8093 173.432 19.2761 173.347 19.7525V24.0771C173.502 24.6712 173.717 25.2477 173.989 25.7977C174.236 26.309 174.601 26.7539 175.054 27.0951C175.56 27.4417 176.163 27.6159 176.775 27.5915C177.291 27.6054 177.802 27.4976 178.268 27.2772C178.69 27.0662 179.045 26.7416 179.292 26.3396C179.592 25.8519 179.795 25.3109 179.889 24.7464C180.034 24.0012 180.101 23.2429 180.089 22.4838ZM182.606 21.0499V22.4838C182.623 23.5559 182.508 24.626 182.265 25.6704C182.09 26.4855 181.758 27.2586 181.286 27.9464C180.883 28.5275 180.34 28.9972 179.707 29.3121C179.033 29.6219 178.299 29.7774 177.558 29.7673C176.829 29.785 176.107 29.6289 175.45 29.3121C174.85 28.9832 174.338 28.5148 173.957 27.9464C173.531 27.2938 173.209 26.5778 173.006 25.8251C172.769 24.9076 172.617 23.9706 172.551 23.0255V20.8359C172.615 19.8471 172.767 18.8661 173.006 17.9043C173.197 17.1183 173.514 16.3683 173.944 15.6829C174.319 15.0994 174.832 14.6166 175.437 14.2764C176.083 13.9428 176.803 13.7769 177.531 13.7938C178.278 13.7787 179.02 13.9229 179.707 14.217C180.346 14.5088 180.896 14.9662 181.3 15.5418C181.78 16.2249 182.113 16.9998 182.279 17.8179C182.511 18.8791 182.621 19.9636 182.606 21.0499ZM174.003 17.0077V35.3573H171.486V14.0623H173.762L174.003 17.0077ZM159.846 19.7116L158.17 20.2533C158.155 19.4308 158.259 18.6103 158.48 17.8179C158.682 17.0754 159.01 16.3732 159.45 15.742C159.873 15.1456 160.428 14.6535 161.07 14.3035C161.761 13.9339 162.536 13.749 163.319 13.7665C163.955 13.7548 164.587 13.866 165.181 14.0941C165.716 14.3042 166.187 14.651 166.546 15.1001C166.957 15.6041 167.249 16.1936 167.402 16.8254C167.604 17.6444 167.698 18.4859 167.684 19.3291V29.4395H165.149V19.2973C165.18 18.6141 165.069 17.9319 164.821 17.2944C164.655 16.8552 164.33 16.4944 163.911 16.2837C163.477 16.073 162.999 15.9701 162.518 15.9834C162.109 15.9772 161.707 16.0808 161.352 16.2837C161.012 16.4902 160.724 16.7721 160.51 17.1077C160.274 17.4701 160.097 17.8681 159.987 18.2866C159.88 18.7538 159.833 19.2327 159.846 19.7116ZM151.552 21.1637L150.386 21.1182C150.369 20.1378 150.475 19.1591 150.7 18.2048C150.89 17.371 151.223 16.5763 151.684 15.8558C152.101 15.2145 152.672 14.6872 153.345 14.3217C154.067 13.9381 154.876 13.747 155.694 13.7665C156.254 13.7619 156.809 13.8669 157.328 14.0759C157.847 14.2789 158.306 14.6074 158.667 15.0319C159.075 15.5242 159.375 16.0963 159.55 16.7116C159.784 17.514 159.895 18.3477 159.877 19.1835V29.4395H157.356V19.3109C157.38 18.6507 157.27 17.9924 157.032 17.3762C156.855 16.9337 156.535 16.5636 156.122 16.3248C155.664 16.0889 155.155 15.9718 154.64 15.9845C154.125 15.9973 153.622 16.1392 153.177 16.3975C152.756 16.6851 152.417 17.0773 152.193 17.5356C151.944 18.0619 151.772 18.6215 151.684 19.1971C151.589 19.8482 151.545 20.5058 151.552 21.1637ZM152.066 17.1077V29.4395H149.562V14.0623H151.948L152.066 17.1077ZM143.517 20.1075L143.544 21.9604H141.796C141.244 21.954 140.693 22.0197 140.157 22.156C139.708 22.2742 139.284 22.4732 138.906 22.7432C138.565 22.9755 138.286 23.2882 138.095 23.6537C137.911 24.0497 137.819 24.4826 137.827 24.9193C137.807 25.4249 137.894 25.9289 138.082 26.3988C138.238 26.742 138.511 27.019 138.851 27.1816C139.259 27.3547 139.7 27.4371 140.144 27.423C140.735 27.4301 141.317 27.2724 141.824 26.9678C142.274 26.702 142.658 26.3377 142.948 25.9024C143.196 25.5628 143.33 25.1532 143.33 24.7326L143.886 25.9162C143.834 26.3367 143.709 26.7449 143.517 27.1225C143.301 27.576 143.017 27.9937 142.675 28.3608C142.308 28.7563 141.875 29.0844 141.396 29.3303C140.888 29.5817 140.328 29.7081 139.761 29.6991C138.949 29.7161 138.144 29.5399 137.412 29.1847C136.756 28.8506 136.216 28.3252 135.865 27.6779C135.471 26.9201 135.28 26.0731 135.309 25.2196C135.302 24.5183 135.432 23.8224 135.692 23.1711C135.943 22.5502 136.332 21.9945 136.83 21.5461C137.377 21.0554 138.022 20.6875 138.723 20.4671C139.583 20.1965 140.481 20.066 141.382 20.0804L143.517 20.1075ZM143.116 26.8084V18.4598C143.137 17.9559 143.04 17.4542 142.834 16.9939C142.664 16.6348 142.372 16.3478 142.01 16.1837C141.579 15.9993 141.113 15.9122 140.645 15.9287C140.169 15.9198 139.699 16.0325 139.279 16.2564C138.914 16.4604 138.61 16.7594 138.4 17.1215C138.198 17.4879 138.095 17.9003 138.1 18.3186H135.56C135.563 17.7536 135.684 17.1954 135.915 16.6798C136.169 16.129 136.526 15.6315 136.966 15.2139C137.437 14.7577 137.994 14.4004 138.605 14.1625C139.293 13.8902 140.028 13.7556 140.767 13.7665C141.629 13.7453 142.485 13.9002 143.285 14.2217C144.006 14.5177 144.611 15.0421 145.005 15.7147C145.46 16.5606 145.675 17.5142 145.629 18.4733V26.0709C145.633 26.6175 145.671 27.1634 145.743 27.7053C145.811 28.214 145.932 28.7142 146.103 29.1983V29.4259H143.499C143.354 29.0369 143.258 28.6319 143.212 28.2196C143.152 27.7516 143.12 27.2803 143.116 26.8084ZM124.68 8.72705V29.4395H122.062V8.72705H124.68ZM132.806 27.2089V29.4395H124.211V27.2089H132.806Z" fill="#022625"/>
</g>
<defs>
<clipPath id="clip0_1159_26044">
<rect width="182.611" height="40" fill="white"/>
</clipPath>
</defs>
</svg>
