<svg width="102" height="268" viewBox="0 0 102 268" fill="none" xmlns="http://www.w3.org/2000/svg">
<path d="M101.222 143.953C99.8892 142.449 98.9329 140.65 98.4324 138.703C97.5024 135.823 93.5224 134.473 92.4324 132.273C91.3424 130.073 90.4924 123.273 90.4324 116.023C90.3724 108.773 88.9124 100.373 87.6424 96.7332C86.3724 93.0932 85.1024 89.1232 85.5224 84.5532C85.9627 80.7201 85.8482 76.8436 85.1824 73.0432C84.5924 70.6732 84.3424 70.8432 85.2724 66.0432C86.2024 61.2432 84.3424 55.8832 81.4624 50.8032C78.5824 45.7232 72.3624 45.6532 70.7624 44.4432C69.1624 43.2332 66.0224 42.5732 63.0624 40.8832C60.1024 39.1932 58.1524 38.6832 58.1524 37.5032C58.0275 35.1644 58.4025 32.8257 59.2524 30.6432C59.9791 29.048 60.3835 27.3251 60.4424 25.5732C61.7124 26.2532 61.7924 25.0632 62.8924 22.7732C63.9924 20.4832 64.3324 18.9732 64.0824 17.7732C64.0307 17.4622 63.8596 17.1836 63.6056 16.9969C63.3516 16.8101 63.0347 16.7298 62.7224 16.7732C62.7224 16.7732 64.6724 9.40321 60.8624 4.66321C57.8624 0.883208 53.2224 0.183213 51.4824 0.0432129H50.7924C49.0624 0.183213 44.4624 0.883208 41.4124 4.66321C37.6124 9.40321 39.5524 16.7732 39.5524 16.7732C39.2413 16.73 38.9257 16.8106 38.6733 16.9976C38.4208 17.1845 38.2518 17.463 38.2024 17.7732C37.9424 18.9632 38.2824 20.4832 39.3924 22.7732C40.5024 25.0632 40.5724 26.2532 41.8424 25.5732C41.9006 27.3241 42.3015 29.0466 43.0224 30.6432C43.8724 32.8257 44.2474 35.1644 44.1224 37.5032C44.1224 38.6832 42.1824 39.1932 39.2224 40.8832C36.2624 42.5732 33.1224 43.2532 31.5124 44.4432C29.9024 45.6332 23.7324 45.7132 20.8524 50.7832C17.9724 55.8532 16.1124 61.1932 17.0524 66.0232C17.9924 70.8532 17.7224 70.6732 17.1324 73.0232C16.4717 76.8241 16.3572 80.6999 16.7924 84.5332C17.2124 89.1032 15.9424 93.0732 14.6824 96.7132C13.4224 100.353 11.9724 108.713 11.8824 116.003C11.7924 123.293 10.9524 130.003 9.88242 132.253C8.81242 134.503 4.81242 135.803 3.88242 138.683C3.38199 140.63 2.42568 142.429 1.09245 143.933C0.332447 144.603 2.70244 145.873 3.80244 143.933C4.90244 141.993 5.66245 140.933 6.34245 141.303C7.02245 141.673 6.08244 145.203 5.24244 148.923C4.40244 152.643 3.55243 155.103 5.07243 155.103C6.59243 155.103 7.61243 149.433 8.07243 148.243C8.53243 147.053 8.41245 151.123 7.31245 154.003C6.21245 156.883 6.46245 157.803 7.31245 158.003C8.16245 158.203 9.00245 155.643 9.00245 155.643C9.00245 155.643 10.6524 156.933 12.4024 152.433C12.4024 152.433 14.1524 153.683 15.7724 148.553C17.3924 143.423 18.6525 136.683 18.0324 133.553C17.4124 130.423 25.1525 116.803 26.0324 105.173C26.9124 93.5432 28.5324 84.5432 29.1524 83.9232C29.7724 83.3032 33.4024 94.9232 31.9124 101.043C31.0274 104.405 30.4418 107.838 30.1624 111.303C30.0324 112.423 28.0324 117.053 27.4024 122.173C26.7724 127.293 24.5324 132.803 26.5324 150.553C28.5324 168.303 31.7824 174.183 32.1524 177.813C32.5224 181.443 32.5324 190.943 32.4124 192.813C32.2924 194.683 31.6624 197.313 31.5324 199.313C31.4025 201.313 28.4025 208.313 31.7824 222.193C35.1624 236.073 35.9124 244.073 35.9124 245.573C35.9124 247.073 35.1524 247.323 35.9124 249.333C36.6724 251.343 33.9124 255.563 31.8624 257.273C30.4834 258.262 29.4123 259.621 28.7724 261.193C28.4924 262.083 28.6024 263.023 29.3224 263.023C29.2303 263.27 29.2022 263.536 29.2407 263.797C29.2792 264.057 29.383 264.304 29.5424 264.513C29.6522 264.729 29.8363 264.897 30.0606 264.987C30.2849 265.077 30.5342 265.083 30.7624 265.003C30.7486 265.256 30.8242 265.506 30.9759 265.709C31.1276 265.912 31.3459 266.055 31.5924 266.113C31.7968 266.19 32.0144 266.225 32.2325 266.216C32.4505 266.208 32.6647 266.156 32.8624 266.063C33.0021 266.34 33.2146 266.574 33.4771 266.74C33.7395 266.905 34.0421 266.996 34.3524 267.003C35.3524 266.943 35.5724 266.163 35.6724 265.613C35.7724 265.063 36.1224 263.903 36.6724 263.843C36.7906 263.825 36.9115 263.84 37.0216 263.886C37.1316 263.933 37.2263 264.01 37.295 264.108C37.3637 264.206 37.4036 264.321 37.4103 264.44C37.4169 264.56 37.3899 264.678 37.3324 264.783C37.1124 265.283 37.0024 265.613 36.6724 266.393C36.3424 267.173 37.1124 268.213 39.2124 267.833C41.3124 267.453 40.4324 265.453 41.7024 264.073C42.3134 263.506 42.7894 262.809 43.0957 262.034C43.402 261.259 43.5308 260.425 43.4724 259.593C43.4124 257.593 45.6324 257.993 45.2924 254.513C44.9524 251.033 44.2424 250.033 44.9124 248.153C45.5824 246.273 44.4624 244.063 44.3524 243.153C44.2814 239.278 44.425 235.402 44.7824 231.543C45.1624 229.163 46.5324 221.043 46.2824 217.793C46.0324 214.543 47.9124 212.033 46.0324 203.913C44.1524 195.793 47.1624 196.783 47.0324 188.413C46.9024 180.043 49.1624 177.283 48.6524 169.533C48.1424 161.783 49.6524 157.533 49.9124 153.283C50.0824 150.283 50.6324 149.223 50.9124 148.843C51.3324 149.193 51.9624 150.163 52.1224 152.903C52.3724 157.153 53.4925 161.783 53.0024 169.533C52.5124 177.283 54.0024 180.033 53.8724 188.413C53.7424 196.793 56.7524 195.783 54.8724 203.913C52.9924 212.043 54.1224 214.543 53.8724 217.793C53.6224 221.043 55.7524 229.163 56.1224 231.543C56.485 235.402 56.6286 239.278 56.5524 243.153C56.4424 244.033 55.3325 246.243 56.0024 248.153C56.6724 250.063 55.9424 251.023 55.6124 254.513C55.2824 258.003 57.4924 257.603 57.4424 259.593C57.3821 260.424 57.509 261.258 57.8135 262.033C58.1181 262.808 58.5927 263.506 59.2024 264.073C60.4724 265.453 59.5924 267.443 61.6924 267.833C63.7924 268.223 64.5624 267.163 64.2324 266.393C63.9024 265.623 63.7924 265.283 63.5724 264.783C63.5149 264.678 63.488 264.56 63.4946 264.44C63.5012 264.321 63.5411 264.206 63.6098 264.108C63.6785 264.01 63.7733 263.933 63.8833 263.886C63.9934 263.84 64.1143 263.825 64.2324 263.843C64.7824 263.903 65.1224 265.063 65.2324 265.613C65.3424 266.163 65.5624 266.943 66.5524 267.003C66.8627 266.996 67.1653 266.905 67.4278 266.74C67.6903 266.574 67.9027 266.34 68.0424 266.063C68.2418 266.156 68.4577 266.208 68.6774 266.217C68.8971 266.225 69.1164 266.19 69.3224 266.113C69.5671 266.053 69.7831 265.909 69.9328 265.706C70.0826 265.504 70.1567 265.255 70.1424 265.003C70.3707 265.083 70.62 265.077 70.8443 264.987C71.0686 264.897 71.2526 264.729 71.3624 264.513C71.5254 264.305 71.6314 264.059 71.67 263.797C71.7085 263.536 71.6784 263.269 71.5824 263.023C72.3024 263.023 72.4124 262.083 72.1324 261.193C71.4926 259.621 70.4214 258.262 69.0424 257.273C66.9924 255.563 64.2524 251.333 65.0424 249.333C65.8324 247.333 65.0424 247.073 65.0424 245.573C65.0424 244.073 65.7924 236.073 69.1624 222.193C72.5324 208.313 70.2924 201.313 70.1624 199.313C70.0324 197.313 69.4124 194.693 69.2924 192.813C69.1724 190.933 69.9124 181.443 70.2924 177.813C70.6724 174.183 73.9124 168.313 75.9224 150.553C77.9324 132.793 74.1624 127.303 73.5424 122.173C72.9224 117.043 72.4124 112.423 72.2924 111.303C72.0016 107.84 71.4162 104.407 70.5424 101.043C69.0424 94.9232 72.6624 83.2932 73.2924 83.9232C73.9224 84.5532 75.5424 93.5432 76.4124 105.173C77.2824 116.803 85.0424 130.433 84.4124 133.553C83.7824 136.673 85.0324 143.433 86.6624 148.553C88.2924 153.673 90.0324 152.433 90.0324 152.433C91.7824 156.933 93.4324 155.643 93.4324 155.643C93.4324 155.643 94.2824 158.173 95.1324 158.003C95.9824 157.833 96.2224 156.903 95.1324 154.003C94.0424 151.103 93.9424 147.063 94.3624 148.243C94.7824 149.423 95.8024 155.103 97.3624 155.103C98.9224 155.103 98.0424 152.643 97.1924 148.923C96.3424 145.203 95.4224 141.643 96.0924 141.303C96.7624 140.963 97.5424 141.983 98.6324 143.933C99.7224 145.883 102.102 144.603 101.342 143.933L101.222 143.953Z" fill="#F1F3F3"/>
</svg>